# Blender v3.0.0 OBJ File: 'FinalLowPoly.blend'
# www.blender.org
mtllib Guard-Hut_DoorC.mtl
o DoorC_Cube.020
v -0.217280 -1.050610 0.066672
v -0.275307 -1.108637 0.066672
v -0.208607 -1.041937 0.050005
v -0.117280 -1.050610 0.066672
v -0.217280 -0.950610 0.066672
v -0.217280 0.950610 0.066672
v -0.275307 -1.008637 0.066672
v -0.208607 -0.941937 0.050005
v -0.208607 0.941937 0.050005
v -0.199934 -0.933264 0.033339
v -0.199934 0.933264 0.033339
v -0.199934 -1.033264 0.033339
v -0.099934 -1.033264 0.033339
v -0.050001 -0.050000 0.033339
v 0.099931 -1.033264 0.033339
v -0.050001 -0.050000 0.050005
v 0.108605 -1.041937 0.050005
v -0.000001 -0.000000 0.050005
v -0.208607 1.041937 0.050005
v 0.208604 -1.041937 0.050005
v 0.049999 0.050000 0.050005
v 0.208604 -0.941937 0.050005
v -0.108607 1.041937 0.050005
v 0.049999 0.050000 0.033339
v 0.199931 -0.933264 0.033339
v -0.099934 1.033263 0.033339
v 0.199931 1.033263 0.033339
v 0.208604 1.041937 0.050005
v 0.099931 1.033263 0.033339
v 0.199931 0.933264 0.033339
v 0.208604 0.941937 0.050005
v 0.217277 0.950610 0.066672
v 0.217277 1.050610 0.066672
v 0.275304 1.008637 0.066672
v 0.217277 -0.950610 0.066672
v 0.217277 -1.050610 0.066672
v 0.275304 -1.008637 0.066672
v 0.275304 -1.108637 0.066672
v 0.333331 -1.066664 0.066672
v 0.333331 -1.166664 0.066672
v 0.333331 1.066664 0.066672
v 0.333331 -1.066664 -0.066661
v 0.333331 -1.166664 -0.066661
v 0.333331 1.066664 -0.066661
v 0.233332 -1.066664 -0.066661
v 0.233332 -1.166664 -0.066661
v 0.233332 1.066664 -0.066661
v -0.233334 -1.066664 -0.066661
v -0.233334 -1.166664 -0.066661
v -0.233334 1.066664 -0.066661
v -0.333334 -1.066664 -0.066661
v -0.333334 -1.166664 -0.066661
v -0.333334 1.066664 -0.066661
v -0.333334 -1.066664 0.066672
v -0.333334 1.066664 0.066672
v -0.333334 -1.166664 0.066672
v -0.233334 -1.166664 0.066672
v -0.175307 -1.108637 0.066672
v 0.233332 -1.166664 0.066672
v 0.175304 -1.108637 0.066672
v 0.117277 -1.050610 0.066672
v -0.333334 1.166664 0.066672
v -0.275307 1.008637 0.066672
v -0.275307 1.108637 0.066672
v -0.217280 1.050610 0.066672
v -0.175307 1.108637 0.066672
v 0.175304 1.108637 0.066672
v -0.117280 1.050610 0.066672
v -0.233334 1.166664 0.066672
v 0.233332 1.166664 0.066672
v -0.233334 1.166664 -0.066661
v -0.333334 1.166664 -0.066661
v 0.233332 1.166664 -0.066661
v 0.333331 1.166664 -0.066661
v 0.333331 1.166664 0.066672
v 0.275304 1.108637 0.066672
v 0.117277 1.050610 0.066672
v 0.108605 1.041937 0.050005
v -0.108607 -1.041937 0.050005
vt 0.843492 0.741767
vt 0.843492 0.749074
vt 0.839252 0.744834
vt 0.839251 0.737527
vt 0.850799 0.741767
vt 0.846559 0.737527
vt 0.993924 0.313451
vt 0.987603 0.313771
vt 0.986995 0.312611
vt 0.993316 0.312291
vt 0.346864 0.079343
vt 0.356253 0.079301
vt 0.355447 0.081068
vt 0.346057 0.081118
vt 0.243946 0.079301
vt 0.244772 0.081083
vt 0.843492 0.887997
vt 0.839252 0.892237
vt 0.345255 0.082878
vt 0.245584 0.082835
vt 0.354641 0.082836
vt 0.474603 0.900076
vt 0.474628 0.972467
vt 0.454103 0.838177
vt 0.452963 0.830683
vt 0.986386 0.311451
vt 0.992707 0.311131
vt 0.474628 0.827387
vt 0.474568 0.827009
vt 0.111739 0.049599
vt 0.111739 0.048346
vt 0.184207 0.048239
vt 0.183492 0.049549
vt 0.039986 0.049550
vt 0.039272 0.048239
vt 0.658556 0.798845
vt 0.658556 0.872248
vt 0.651340 0.873402
vt 0.654371 0.795814
vt 0.658556 0.725442
vt 0.657402 0.718226
vt 0.650186 0.792783
vt 0.650186 0.719380
vt 0.650186 0.866186
vt 0.254291 0.294453
vt 0.255544 0.294453
vt 0.255651 0.366916
vt 0.254341 0.366201
vt 0.254341 0.222705
vt 0.255651 0.221990
vt 0.429711 0.883268
vt 0.429736 0.955660
vt 0.409211 0.821369
vt 0.408071 0.813875
vt 0.429736 0.810579
vt 0.429676 0.810201
vt 0.967234 0.298067
vt 0.973560 0.297871
vt 0.974146 0.299042
vt 0.967820 0.299239
vt 0.655693 0.340051
vt 0.655742 0.349441
vt 0.653975 0.348634
vt 0.653933 0.339249
vt 0.655727 0.238765
vt 0.653975 0.239578
vt 0.657468 0.340859
vt 0.657510 0.350247
vt 0.657510 0.237940
vt 0.875246 0.895304
vt 0.875246 0.887997
vt 0.879486 0.892237
vt 0.879486 0.899544
vt 0.875246 0.749074
vt 0.879486 0.744834
vt 0.657496 0.228447
vt 0.655714 0.229273
vt 0.875246 0.741767
vt 0.879486 0.737527
vt 0.883726 0.740594
vt 0.883726 0.896477
vt 0.883726 0.733287
vt 0.016677 0.433764
vt 0.016677 0.441071
vt 0.006935 0.441071
vt 0.006935 0.433764
vt 0.016677 0.596958
vt 0.006935 0.596958
vt 0.312189 0.631682
vt 0.312189 0.638989
vt 0.304882 0.638989
vt 0.304882 0.631682
vt 0.312189 0.794875
vt 0.304882 0.794875
vt 0.346289 0.631682
vt 0.346289 0.638989
vt 0.346289 0.794875
vt 0.353597 0.631682
vt 0.353597 0.638990
vt 0.353596 0.794875
vt 0.024230 0.604548
vt 0.024230 0.597241
vt 0.033973 0.597241
vt 0.033973 0.604548
vt 0.024230 0.441354
vt 0.033973 0.441354
vt 0.835011 0.896477
vt 0.835011 0.740594
vt 0.835011 0.733286
vt 0.024810 0.425516
vt 0.024810 0.419550
vt 0.032765 0.419550
vt 0.032765 0.425516
vt 0.842319 0.733287
vt 0.872179 0.737527
vt 0.876419 0.733287
vt 0.024810 0.391707
vt 0.032765 0.391707
vt 0.024810 0.385741
vt 0.032765 0.385741
vt 0.867939 0.741767
vt 0.972776 0.314522
vt 0.966456 0.314842
vt 0.966944 0.313626
vt 0.973265 0.313306
vt 0.839252 0.899544
vt 0.835012 0.903785
vt 0.024230 0.434047
vt 0.033973 0.434047
vt 0.843492 0.895304
vt 0.846559 0.899544
vt 0.842319 0.903785
vt 0.850799 0.895304
vt 0.872179 0.899544
vt 0.876419 0.903785
vt 0.867938 0.895304
vt 0.009276 0.391089
vt 0.009276 0.385123
vt 0.017231 0.385123
vt 0.017231 0.391089
vt 0.009276 0.418932
vt 0.017231 0.418932
vt 0.353596 0.802182
vt 0.346289 0.802182
vt 0.312189 0.802182
vt 0.009276 0.424898
vt 0.017231 0.424898
vt 0.304882 0.802182
vt 0.016677 0.604264
vt 0.006935 0.604264
vt 0.883726 0.903785
vt 0.987813 0.296239
vt 0.994139 0.296042
vt 0.993627 0.297248
vt 0.987301 0.297444
vt 0.972974 0.296699
vt 0.966648 0.296896
vt 0.986789 0.298650
vt 0.234453 0.079314
vt 0.235279 0.081097
vt 0.973753 0.312091
vn -0.0000 0.0000 1.0000
vn 0.0000 0.8871 0.4616
vn 0.8871 0.0000 0.4616
vn -0.9656 -0.1508 -0.2120
vn -0.9656 -0.1508 0.2120
vn 0.9656 0.1508 -0.2120
vn 0.9656 0.1508 0.2120
vn 0.0000 -0.8871 0.4616
vn -0.8871 0.0000 0.4616
vn 1.0000 0.0000 0.0000
vn 0.0000 0.0000 -1.0000
vn -1.0000 0.0000 0.0000
vn 0.0000 -1.0000 0.0000
vn 0.0000 1.0000 0.0000
usemtl Building
s off
f 1/1/1 5/2/1 7/3/1 2/4/1
f 4/5/1 1/1/1 2/4/1 58/6/1
f 1/7/2 4/8/2 79/9/2 3/10/2
f 5/11/3 1/12/3 3/13/3 8/14/3
f 6/15/3 5/11/3 8/14/3 9/16/3
f 5/2/1 6/17/1 63/18/1 7/3/1
f 9/16/3 8/14/3 10/19/3 11/20/3
f 8/14/3 3/13/3 12/21/3 10/19/3
f 14/22/1 11/23/1 10/24/1 12/25/1
f 3/10/2 79/9/2 13/26/2 12/27/2
f 15/28/1 14/22/1 12/25/1 13/29/1
f 14/30/4 16/31/4 9/32/4 11/33/4
f 15/34/5 17/35/5 16/31/5 14/30/5
f 16/36/1 17/37/1 20/38/1 18/39/1
f 9/40/1 16/36/1 18/39/1 19/41/1
f 21/42/1 23/43/1 19/41/1 18/39/1
f 22/44/1 21/42/1 18/39/1 20/38/1
f 24/45/6 21/46/6 22/47/6 25/48/6
f 26/49/7 23/50/7 21/46/7 24/45/7
f 24/51/1 25/52/1 30/53/1 27/54/1
f 26/55/1 24/51/1 27/54/1 29/56/1
f 28/57/8 78/58/8 29/59/8 27/60/8
f 31/61/9 28/62/9 27/63/9 30/64/9
f 22/65/9 31/61/9 30/64/9 25/66/9
f 32/67/9 33/68/9 28/62/9 31/61/9
f 35/69/9 32/67/9 31/61/9 22/65/9
f 33/70/1 32/71/1 34/72/1 76/73/1
f 32/71/1 35/74/1 37/75/1 34/72/1
f 36/76/9 35/69/9 22/65/9 20/77/9
f 35/74/1 36/78/1 38/79/1 37/75/1
f 34/72/1 37/75/1 39/80/1 41/81/1
f 37/75/1 38/79/1 40/82/1 39/80/1
f 43/83/10 42/84/10 39/85/10 40/86/10
f 42/84/10 44/87/10 41/88/10 39/85/10
f 46/89/11 45/90/11 42/91/11 43/92/11
f 45/90/11 47/93/11 44/94/11 42/91/11
f 49/95/11 48/96/11 45/90/11 46/89/11
f 48/96/11 50/97/11 47/93/11 45/90/11
f 52/98/11 51/99/11 48/96/11 49/95/11
f 51/99/11 53/100/11 50/97/11 48/96/11
f 56/101/12 54/102/12 51/103/12 52/104/12
f 54/102/12 55/105/12 53/106/12 51/103/12
f 7/3/1 63/18/1 55/107/1 54/108/1
f 2/4/1 7/3/1 54/108/1 56/109/1
f 52/110/13 49/111/13 57/112/13 56/113/13
f 58/6/1 2/4/1 56/109/1 57/114/1
f 60/115/1 58/6/1 57/114/1 59/116/1
f 49/111/13 46/117/13 59/118/13 57/112/13
f 38/79/1 60/115/1 59/116/1 40/82/1
f 46/117/13 43/119/13 40/120/13 59/118/13
f 36/78/1 61/121/1 60/115/1 38/79/1
f 61/121/1 4/5/1 58/6/1 60/115/1
f 61/122/2 36/123/2 20/124/2 17/125/2
f 4/8/2 61/122/2 17/125/2 79/9/2
f 63/18/1 64/126/1 62/127/1 55/107/1
f 55/105/12 62/128/12 72/129/12 53/106/12
f 6/17/1 65/130/1 64/126/1 63/18/1
f 64/126/1 66/131/1 69/132/1 62/127/1
f 65/130/1 68/133/1 66/131/1 64/126/1
f 66/131/1 67/134/1 70/135/1 69/132/1
f 68/133/1 77/136/1 67/134/1 66/131/1
f 71/137/14 72/138/14 62/139/14 69/140/14
f 73/141/14 71/137/14 69/140/14 70/142/14
f 53/100/11 72/143/11 71/144/11 50/97/11
f 50/97/11 71/144/11 73/145/11 47/93/11
f 74/146/14 73/141/14 70/142/14 75/147/14
f 47/93/11 73/145/11 74/148/11 44/94/11
f 44/87/10 74/149/10 75/150/10 41/88/10
f 76/73/1 34/72/1 41/81/1 75/151/1
f 67/134/1 76/73/1 75/151/1 70/135/1
f 77/136/1 33/70/1 76/73/1 67/134/1
f 68/152/8 65/153/8 19/154/8 23/155/8
f 77/156/8 68/152/8 23/155/8 78/58/8
f 33/157/8 77/156/8 78/58/8 28/57/8
f 78/58/8 23/155/8 26/158/8 29/59/8
f 65/159/3 6/15/3 9/16/3 19/160/3
f 79/9/2 17/125/2 15/161/2 13/26/2
