# Blender v3.0.0 OBJ File: ''
# www.blender.org
mtllib Fire.mtl
o Cylinder_Cylinder.002
v 0.000000 1.000000 -1.000000
v 0.707107 1.000000 -0.707107
v 1.000000 1.000000 0.000000
v 0.707107 1.000000 0.707107
v -0.000000 1.000000 1.000000
v -0.707107 1.000000 0.707107
v 0.000000 -1.000000 0.000000
v -1.000000 1.000000 -0.000000
v -0.707107 1.000000 -0.707107
v -0.000000 -0.500000 -0.484816
v -0.000000 0.000000 -0.810317
v -0.000000 0.500000 -0.976502
v 0.690491 0.500000 -0.690491
v 0.572981 0.000000 -0.572981
v 0.342817 -0.500000 -0.342817
v 0.976502 0.500000 0.000000
v 0.810317 0.000000 0.000000
v 0.484816 -0.500000 0.000000
v 0.690491 0.500000 0.690491
v 0.572981 0.000000 0.572981
v 0.342817 -0.500000 0.342817
v -0.000000 0.500000 0.976502
v -0.000000 0.000000 0.810317
v -0.000000 -0.500000 0.484816
v -0.690491 0.500000 0.690492
v -0.572981 0.000000 0.572981
v -0.342817 -0.500000 0.342817
v -0.976502 0.500000 -0.000000
v -0.810317 0.000000 -0.000000
v -0.484816 -0.500000 0.000000
v -0.690492 0.500000 -0.690491
v -0.572981 0.000000 -0.572981
v -0.342817 -0.500000 -0.342817
v 0.000328 -0.999522 -0.000328
v 0.000464 -0.999522 0.000000
v 0.000328 -0.999522 0.000328
v -0.000000 -0.999522 0.000464
v -0.000328 -0.999522 0.000328
v -0.000464 -0.999522 0.000000
v -0.000328 -0.999522 -0.000328
v -0.000000 -0.999522 -0.000464
vt 0.000000 0.250000
vt -0.000000 0.000000
vt 0.125000 0.000000
vt 0.125000 0.250000
vt 0.250000 0.000000
vt 0.250000 0.250000
vt 0.375000 0.000000
vt 0.375000 0.250000
vt 0.500000 0.000000
vt 0.500000 0.250000
vt 0.625000 0.000000
vt 0.625000 0.250000
vt 0.750000 0.000000
vt 0.750000 0.250000
vt 0.875000 0.000000
vt 0.875000 0.250000
vt 1.000000 0.000000
vt 1.000000 0.250000
vt 0.875000 0.999761
vt 0.875000 0.750000
vt 1.000000 0.750000
vt 0.999995 0.999761
vt 0.875000 0.500000
vt 1.000000 0.500000
vt 0.750000 0.999761
vt 0.750000 0.750000
vt 0.750000 0.500000
vt 0.625000 0.999761
vt 0.625000 0.750000
vt 0.625000 0.500000
vt 0.500000 0.999761
vt 0.500000 0.750000
vt 0.500000 0.500000
vt 0.375000 0.999761
vt 0.375000 0.750000
vt 0.375000 0.500000
vt 0.250000 0.999761
vt 0.250000 0.750000
vt 0.250000 0.500000
vt 0.125000 0.999761
vt 0.125000 0.750000
vt 0.125000 0.500000
vt 0.000004 0.999761
vt 0.000000 0.750000
vt 0.000000 0.500000
vt 0.000000 1.000000
vt 0.125000 1.000000
vt 0.250000 1.000000
vt 0.375000 1.000000
vt 0.500000 1.000000
vt 0.625000 1.000000
vt 0.750000 1.000000
vt 0.875000 1.000000
vn 0.0000 -0.1772 -0.9842
vn 0.0000 -0.0469 -0.9989
vn 0.7063 -0.0469 -0.7063
vn 0.6959 -0.1772 -0.6959
vn 0.9989 -0.0469 0.0000
vn 0.9842 -0.1772 0.0000
vn 0.7063 -0.0469 0.7063
vn 0.6959 -0.1772 0.6959
vn 0.0000 -0.0469 0.9989
vn 0.0000 -0.1772 0.9842
vn -0.7063 -0.0469 0.7063
vn -0.6959 -0.1772 0.6959
vn -0.9989 -0.0469 0.0000
vn -0.9842 -0.1772 0.0000
vn -0.7063 -0.0469 -0.7063
vn -0.6959 -0.1772 -0.6959
vn -0.5076 -0.6961 -0.5076
vn -0.5589 -0.6124 -0.5589
vn 0.0000 -0.6124 -0.7905
vn 0.0000 -0.6961 -0.7179
vn -0.6409 -0.4223 -0.6409
vn 0.0000 -0.4223 -0.9065
vn -0.7179 -0.6961 0.0000
vn -0.7905 -0.6124 0.0000
vn -0.9065 -0.4223 0.0000
vn -0.5076 -0.6961 0.5077
vn -0.5589 -0.6124 0.5589
vn -0.6409 -0.4223 0.6409
vn 0.0000 -0.6961 0.7179
vn 0.0000 -0.6124 0.7905
vn 0.0000 -0.4223 0.9065
vn 0.5076 -0.6961 0.5076
vn 0.5589 -0.6124 0.5589
vn 0.6409 -0.4223 0.6409
vn 0.7179 -0.6961 0.0000
vn 0.7905 -0.6124 0.0000
vn 0.9065 -0.4223 0.0000
vn 0.5076 -0.6961 -0.5076
vn 0.5589 -0.6124 -0.5589
vn 0.6409 -0.4223 -0.6409
vn 0.0000 -1.0000 0.0000
usemtl Fire
s 1
f 12/1/1 1/2/2 2/3/3 13/4/4
f 13/4/4 2/3/3 3/5/5 16/6/6
f 16/6/6 3/5/5 4/7/7 19/8/8
f 19/8/8 4/7/7 5/9/9 22/10/10
f 22/10/10 5/9/9 6/11/11 25/12/12
f 25/12/12 6/11/11 8/13/13 28/14/14
f 28/14/14 8/13/13 9/15/15 31/16/16
f 31/16/16 9/15/15 1/17/2 12/18/1
f 40/19/17 33/20/18 10/21/19 41/22/20
f 33/20/18 32/23/21 11/24/22 10/21/19
f 32/23/21 31/16/16 12/18/1 11/24/22
f 39/25/23 30/26/24 33/20/18 40/19/17
f 30/26/24 29/27/25 32/23/21 33/20/18
f 29/27/25 28/14/14 31/16/16 32/23/21
f 38/28/26 27/29/27 30/26/24 39/25/23
f 27/29/27 26/30/28 29/27/25 30/26/24
f 26/30/28 25/12/12 28/14/14 29/27/25
f 37/31/29 24/32/30 27/29/27 38/28/26
f 24/32/30 23/33/31 26/30/28 27/29/27
f 23/33/31 22/10/10 25/12/12 26/30/28
f 36/34/32 21/35/33 24/32/30 37/31/29
f 21/35/33 20/36/34 23/33/31 24/32/30
f 20/36/34 19/8/8 22/10/10 23/33/31
f 35/37/35 18/38/36 21/35/33 36/34/32
f 18/38/36 17/39/37 20/36/34 21/35/33
f 17/39/37 16/6/6 19/8/8 20/36/34
f 34/40/38 15/41/39 18/38/36 35/37/35
f 15/41/39 14/42/40 17/39/37 18/38/36
f 14/42/40 13/4/4 16/6/6 17/39/37
f 41/43/20 10/44/19 15/41/39 34/40/38
f 10/44/19 11/45/22 14/42/40 15/41/39
f 11/45/22 12/1/1 13/4/4 14/42/40
f 7/46/41 41/43/20 34/40/38
f 7/47/41 34/40/38 35/37/35
f 7/48/41 35/37/35 36/34/32
f 7/49/41 36/34/32 37/31/29
f 7/50/41 37/31/29 38/28/26
f 7/51/41 38/28/26 39/25/23
f 7/52/41 39/25/23 40/19/17
f 7/53/41 40/19/17 41/22/20
