# Blender v3.0.0 OBJ File: ''
# www.blender.org
mtllib PlayerBullet.mtl
o Cylinder_Cylinder.001
v 0.000000 -0.037500 0.015662
v 0.026517 0.026517 0.015662
v 0.037500 0.000000 -0.029185
v 0.020609 -0.020609 -0.037500
v 0.026517 -0.026517 -0.029185
v -0.000000 -0.029145 -0.037500
v -0.000000 -0.037500 -0.029185
v -0.020609 -0.020609 -0.037500
v -0.026517 -0.026517 -0.029185
v -0.029145 0.000000 -0.037500
v -0.037500 0.000000 -0.029185
v -0.020609 0.020609 -0.037500
v -0.026517 0.026517 -0.029185
v -0.000000 0.037500 -0.029185
v -0.000000 0.029145 -0.037500
v 0.026516 0.026517 -0.029185
v 0.020609 0.020609 -0.037500
v 0.029145 0.000000 -0.037500
v 0.013258 0.013258 0.174965
v 0.022964 0.022964 0.077301
v 0.018750 0.018750 0.123112
v 0.000000 0.026517 0.123112
v 0.000000 0.032476 0.077301
v -0.000000 0.037500 0.015662
v -0.018750 0.018750 0.123112
v -0.022964 0.022964 0.077301
v -0.026517 0.026517 0.015662
v -0.037500 0.000000 0.015662
v -0.026516 -0.000000 0.123112
v -0.032476 -0.000000 0.077301
v -0.022964 -0.022964 0.077301
v -0.026517 -0.026517 0.015662
v -0.013258 -0.013258 0.174965
v -0.018750 -0.018750 0.123112
v 0.000000 -0.018750 0.174965
v 0.000000 -0.032476 0.077301
v 0.000000 -0.026517 0.123112
v 0.022964 -0.022964 0.077301
v 0.013258 -0.013258 0.174965
v 0.018750 -0.018750 0.123112
v 0.026517 -0.026517 0.015662
v 0.018750 0.000000 0.174965
v 0.026517 0.000000 0.123112
v 0.032476 0.000000 0.077301
v 0.037500 0.000000 0.015662
v 0.009512 0.000000 0.198924
v 0.006726 0.006726 0.198924
v 0.000000 0.018750 0.174965
v 0.000000 0.009512 0.198924
v -0.006726 0.006726 0.198924
v -0.013258 0.013258 0.174965
v -0.018750 -0.000000 0.174965
v -0.009512 -0.000000 0.198924
v -0.006726 -0.006726 0.198924
v 0.000000 0.000000 0.213183
v 0.000000 -0.009512 0.198924
v 0.006726 -0.006726 0.198924
vt 0.125000 0.555430
vt 0.125000 0.750000
vt 0.000200 0.750000
vt 0.000300 0.554262
vt 0.250000 0.555430
vt 0.250000 0.750000
vt 0.375000 0.555430
vt 0.375000 0.750000
vt 0.251589 0.750000
vt 0.251634 0.555430
vt 0.500000 0.555430
vt 0.500000 0.750000
vt 0.625000 0.555430
vt 0.625000 0.750000
vt 0.748366 0.555430
vt 0.750000 0.750000
vt 0.872241 0.550174
vt 0.873411 0.750000
vt 0.750000 0.555430
vt 0.998366 0.555430
vt 0.998411 0.750000
vt 0.875000 0.750000
vt 0.875000 0.555430
vt 0.750000 0.436530
vt 0.881896 0.381896
vt 0.936530 0.250000
vt 0.881896 0.118104
vt 0.750000 0.063470
vt 0.618104 0.118104
vt 0.563470 0.250000
vt 0.618104 0.381896
vt 0.878481 0.500000
vt 0.970330 0.479973
vt 0.753481 0.500000
vt 0.845329 0.479973
vt 0.628481 0.500000
vt 0.720330 0.479973
vt 0.503481 0.500000
vt 0.595330 0.479973
vt 0.378481 0.500000
vt 0.470330 0.479973
vt 0.270297 0.486330
vt 0.364090 0.496285
vt 0.145297 0.486331
vt 0.239090 0.496284
vt 0.020297 0.486330
vt 0.114090 0.496285
vt 0.996098 0.933668
vt 0.875000 0.933514
vt 0.875000 0.875000
vt 0.994071 0.875059
vt 0.875000 0.858924
vt 0.996129 0.859211
vt 0.874205 0.750000
vt 0.750000 0.933514
vt 0.750000 0.875000
vt 0.750000 0.858924
vt 0.746716 0.933669
vt 0.625000 0.933514
vt 0.625000 0.875000
vt 0.746693 0.875069
vt 0.625000 0.858924
vt 0.500000 0.933514
vt 0.500000 0.875000
vt 0.500000 0.858924
vt 0.497207 0.933721
vt 0.375000 0.933514
vt 0.375000 0.875000
vt 0.496693 0.875069
vt 0.375000 0.858924
vt 0.497520 0.859211
vt 0.253284 0.933668
vt 0.252895 0.875059
vt 0.252480 0.859211
vt 0.250795 0.750000
vt 0.250000 0.933514
vt 0.125000 0.933514
vt 0.125000 0.875000
vt 0.249378 0.875015
vt 0.125000 0.858924
vt 0.250000 0.858924
vt 0.003261 0.933722
vt 0.005324 0.875069
vt 0.003740 0.859260
vt 0.002178 0.966691
vt 0.124688 0.966634
vt 0.002178 0.966691
vt 0.999219 0.966634
vt 0.875312 0.966634
vt 0.500312 0.966634
vt 0.624688 0.966634
vt 0.500312 0.966634
vt 0.874688 0.966634
vt 0.750312 0.966634
vt 0.750312 0.966634
vt 0.749688 0.966634
vt 0.625312 0.966634
vt 0.875312 0.966634
vt 0.625312 0.966634
vt 0.498134 0.966691
vt 0.375312 0.966634
vt 0.374688 0.966634
vt 0.250312 0.966634
vt 0.125312 0.966634
vt 0.249688 0.966634
vt 0.125312 0.966634
vt 0.375312 0.966634
vt 0.250312 0.966634
vn 0.6613 0.6613 -0.3541
vn 0.7065 0.7065 0.0403
vn 0.9992 0.0000 0.0403
vn 0.9352 0.0000 -0.3541
vn 0.0000 0.9352 -0.3541
vn 0.0000 0.9992 0.0403
vn -0.6613 0.6613 -0.3541
vn -0.7065 0.7065 0.0403
vn -0.9352 0.0000 -0.3541
vn -0.9992 0.0000 0.0403
vn -0.6613 -0.6613 -0.3541
vn -0.7065 -0.7065 0.0403
vn 0.0000 -0.9352 -0.3541
vn 0.0000 -0.9992 0.0403
vn 0.6613 -0.6613 -0.3541
vn 0.7065 -0.7065 0.0403
vn 0.4567 0.0000 -0.8896
vn 0.3229 -0.3229 -0.8896
vn 0.0000 -0.4567 -0.8896
vn -0.3229 -0.3229 -0.8896
vn -0.4567 0.0000 -0.8896
vn -0.3229 0.3229 -0.8896
vn 0.0000 0.4567 -0.8896
vn 0.3229 0.3229 -0.8896
vn 0.9684 0.0000 0.2491
vn 0.6848 -0.6848 0.2491
vn 0.7003 -0.7003 0.1382
vn 0.9904 0.0000 0.1382
vn 0.7032 -0.7032 0.1045
vn 0.9945 0.0000 0.1045
vn 0.0000 -0.9684 0.2491
vn 0.0000 -0.9904 0.1382
vn 0.0000 -0.9945 0.1045
vn -0.6848 -0.6848 0.2491
vn -0.7003 -0.7003 0.1382
vn -0.7032 -0.7032 0.1045
vn -0.9684 0.0000 0.2491
vn -0.9904 0.0000 0.1382
vn -0.9945 0.0000 0.1045
vn -0.6848 0.6848 0.2491
vn -0.7003 0.7003 0.1382
vn -0.7032 0.7032 0.1045
vn 0.0000 0.9684 0.2491
vn 0.0000 0.9904 0.1382
vn 0.0000 0.9945 0.1045
vn 0.6848 0.6848 0.2491
vn 0.7003 0.7003 0.1382
vn 0.7032 0.7032 0.1045
vn 0.8933 0.0000 0.4495
vn 0.6316 0.6316 0.4495
vn 0.0000 0.0000 1.0000
vn 0.6316 -0.6316 0.4495
vn -0.8933 0.0000 0.4495
vn -0.6316 -0.6316 0.4495
vn 0.0000 -0.8933 0.4495
vn -0.6316 0.6316 0.4495
vn 0.0000 0.8933 0.4495
usemtl None
s 1
f 16/1/1 2/2/2 45/3/3 3/4/4
f 14/5/5 24/6/6 2/2/2 16/1/1
f 13/7/7 27/8/8 24/9/6 14/10/5
f 11/11/9 28/12/10 27/8/8 13/7/7
f 9/13/11 32/14/12 28/12/10 11/11/9
f 7/15/13 1/16/14 32/14/12 9/13/11
f 5/17/15 41/18/16 1/16/14 7/19/13
f 3/20/4 45/21/3 41/22/16 5/23/15
f 18/24/17 4/25/18 6/26/19 8/27/20 10/28/21 12/29/22 15/30/23 17/31/24
f 3/20/4 5/23/15 4/32/18 18/33/17
f 5/17/15 7/19/13 6/34/19 4/35/18
f 7/15/13 9/13/11 8/36/20 6/37/19
f 9/13/11 11/11/9 10/38/21 8/39/20
f 11/11/9 13/7/7 12/40/22 10/41/21
f 13/7/7 14/10/5 15/42/23 12/43/22
f 14/5/5 16/1/1 17/44/24 15/45/23
f 16/1/1 3/4/4 18/46/17 17/47/24
f 42/48/25 39/49/26 40/50/27 43/51/28
f 43/51/28 40/50/27 38/52/29 44/53/30
f 44/53/30 38/52/29 41/54/16 45/21/3
f 39/49/26 35/55/31 37/56/32 40/50/27
f 40/50/27 37/56/32 36/57/33 38/52/29
f 38/52/29 36/57/33 1/16/14 41/54/16
f 35/58/31 33/59/34 34/60/35 37/61/32
f 37/61/32 34/60/35 31/62/36 36/57/33
f 36/57/33 31/62/36 32/14/12 1/16/14
f 33/59/34 52/63/37 29/64/38 34/60/35
f 34/60/35 29/64/38 30/65/39 31/62/36
f 31/62/36 30/65/39 28/12/10 32/14/12
f 52/66/37 51/67/40 25/68/41 29/69/38
f 29/69/38 25/68/41 26/70/42 30/71/39
f 30/71/39 26/70/42 27/8/8 28/12/10
f 51/67/40 48/72/43 22/73/44 25/68/41
f 25/68/41 22/73/44 23/74/45 26/70/42
f 26/70/42 23/74/45 24/75/6 27/8/8
f 48/76/43 19/77/46 21/78/47 22/79/44
f 22/79/44 21/78/47 20/80/48 23/81/45
f 23/81/45 20/80/48 2/2/2 24/75/6
f 19/77/46 42/82/25 43/83/28 21/78/47
f 21/78/47 43/83/28 44/84/30 20/80/48
f 20/80/48 44/84/30 45/3/3 2/2/2
f 46/85/49 47/86/50 55/87/51
f 39/49/26 42/48/25 46/88/49 57/89/52
f 53/90/53 54/91/54 55/92/51
f 35/55/31 39/49/26 57/93/52 56/94/55
f 56/94/55 57/93/52 55/95/51
f 33/59/34 35/58/31 56/96/55 54/97/54
f 57/89/52 46/88/49 55/98/51
f 52/63/37 33/59/34 54/91/54 53/90/53
f 54/97/54 56/96/55 55/99/51
f 51/67/40 52/66/37 53/100/53 50/101/56
f 48/72/43 51/67/40 50/102/56 49/103/57
f 47/104/50 49/105/57 55/106/51
f 19/77/46 48/76/43 49/105/57 47/104/50
f 50/101/56 53/100/53 55/107/51
f 42/82/25 19/77/46 47/86/50 46/85/49
f 49/103/57 50/102/56 55/108/51
