# Blender v3.0.0 OBJ File: 'Final_LowPoly.blend'
# www.blender.org
mtllib Column.mtl
o Column_Cube.006
v 0.534337 0.390588 0.817708
v 0.816165 0.429239 0.570216
v 0.568675 0.429239 0.817707
v 0.568675 0.429239 0.902467
v 0.599074 0.429239 0.932867
v 0.931326 0.429238 0.902467
v 0.683836 0.390588 0.967204
v 0.965663 0.390588 0.817708
v 0.931326 0.429238 0.817707
v 0.816165 0.429238 0.932868
v 0.816165 0.390588 0.535879
v 0.534337 0.390588 0.685377
v 0.931326 0.429239 0.600616
v 0.900926 0.429238 0.932867
v 0.599075 0.429239 0.570216
v 0.568675 0.429239 0.685377
v 0.683835 0.429239 0.570215
v 0.683835 0.390588 0.535879
v 0.683835 0.429239 0.932868
v 0.816165 0.390588 0.967204
v 0.568675 0.429239 0.600616
v 0.900924 0.429239 0.570216
v 0.931325 0.429239 0.685377
v 0.965663 0.390588 0.685377
v 0.916126 0.443824 0.917667
v 0.916125 0.443824 0.585416
v 0.583875 0.443824 0.585416
v 0.583874 0.443824 0.917667
v 1.000000 0.354195 0.501541
v 0.500000 0.354195 1.001541
v 0.500000 0.354195 0.501542
v 1.000000 0.354195 1.001541
v 1.000000 0.000000 1.001541
v 1.000000 0.000000 0.501541
v 0.500000 0.000000 1.001541
v 0.500000 0.000000 0.501542
v 0.517169 0.372392 0.593460
v 0.517169 0.372392 0.909624
v 0.908082 0.372392 0.984372
v 0.591918 0.372392 0.984373
v 0.908082 0.372392 0.518710
v 0.591918 0.372392 0.518710
v 0.982831 0.372392 0.909624
v 0.982831 0.372392 0.593459
v 0.534337 1.359412 0.817708
v 0.816165 1.320762 0.570216
v 0.568675 1.320762 0.817707
v 0.568675 1.320762 0.902467
v 0.599074 1.320762 0.932867
v 0.931326 1.320762 0.902467
v 0.683836 1.359412 0.967204
v 0.965663 1.359412 0.817708
v 0.931326 1.320762 0.817707
v 0.816165 1.320762 0.932868
v 0.816165 1.359412 0.535879
v 0.534337 1.359412 0.685377
v 0.931326 1.320762 0.600616
v 0.900926 1.320762 0.932867
v 0.599075 1.320762 0.570216
v 0.568675 1.320762 0.685377
v 0.683835 1.320762 0.570215
v 0.683835 1.359412 0.535879
v 0.683835 1.320762 0.932868
v 0.816165 1.359412 0.967204
v 0.568675 1.320762 0.600616
v 0.900924 1.320762 0.570216
v 0.931325 1.320762 0.685377
v 0.965663 1.359412 0.685377
v 0.916126 1.306177 0.917667
v 0.916125 1.306176 0.585416
v 0.583875 1.306176 0.585416
v 0.583874 1.306176 0.917667
v 1.000000 1.395806 0.501541
v 0.500000 1.395806 1.001541
v 0.500000 1.395806 0.501542
v 1.000000 1.395806 1.001541
v 1.000000 1.750000 1.001541
v 1.000000 1.750000 0.501541
v 0.500000 1.750000 1.001541
v 0.500000 1.750000 0.501542
v 0.517169 1.377609 0.593460
v 0.517169 1.377609 0.909624
v 0.908082 1.377609 0.984372
v 0.591918 1.377609 0.984373
v 0.908082 1.377609 0.518710
v 0.591918 1.377609 0.518710
v 0.982831 1.377609 0.909624
v 0.982831 1.377609 0.593459
vt 0.801855 0.920817
vt 0.806552 0.922171
vt 0.779111 0.922286
vt 0.783875 0.920905
vt 0.899981 0.870124
vt 0.895275 0.868783
vt 0.922724 0.868728
vt 0.917971 0.870121
vt 0.693629 0.867194
vt 0.675567 0.867167
vt 0.670794 0.865801
vt 0.698400 0.865804
vt 0.676256 0.734703
vt 0.671676 0.733384
vt 0.698402 0.733263
vt 0.693801 0.734602
vt 0.919173 0.874991
vt 0.918198 0.874085
vt 0.912345 0.871658
vt 0.913853 0.874650
vt 0.783638 0.916953
vt 0.787948 0.916404
vt 0.789452 0.919395
vt 0.802040 0.916929
vt 0.796355 0.919321
vt 0.798132 0.916308
vt 0.905431 0.871592
vt 0.681645 0.736164
vt 0.688389 0.736076
vt 0.687982 0.868728
vt 0.681041 0.868652
vt 0.802975 0.916047
vt 0.806633 0.941609
vt 0.779193 0.941725
vt 0.671591 0.714452
vt 0.698316 0.714331
vt 0.895236 0.849338
vt 0.922685 0.849284
vt 0.670796 0.846244
vt 0.698402 0.846248
vt 0.782662 0.916049
vt 0.675146 0.739358
vt 0.676064 0.738500
vt 0.679884 0.739117
vt 0.689836 0.738955
vt 0.694014 0.738412
vt 0.694930 0.739270
vt 0.675361 0.871107
vt 0.674390 0.872017
vt 0.679272 0.871695
vt 0.693853 0.871167
vt 0.689500 0.871733
vt 0.694830 0.872074
vt 0.898852 0.874878
vt 0.899787 0.873998
vt 0.903659 0.874602
vt 0.675722 0.780458
vt 0.674770 0.779566
vt 0.782761 0.874878
vt 0.783696 0.873998
vt 0.787569 0.874602
vt 0.789341 0.871592
vt 0.796254 0.871658
vt 0.797762 0.874650
vt 0.802107 0.874085
vt 0.803082 0.874991
vt 0.919065 0.916047
vt 0.918131 0.916929
vt 0.914223 0.916308
vt 0.912446 0.919320
vt 0.905542 0.919395
vt 0.904039 0.916404
vt 0.899729 0.916953
vt 0.898753 0.916049
vt 0.694802 0.913126
vt 0.693869 0.914005
vt 0.689969 0.913385
vt 0.688202 0.916387
vt 0.681323 0.916451
vt 0.679816 0.913493
vt 0.675547 0.914060
vt 0.674608 0.913186
vt 0.694786 0.779590
vt 0.693831 0.780478
vt 0.689999 0.779894
vt 0.688234 0.782891
vt 0.681442 0.782841
vt 0.801881 0.870121
vt 0.783891 0.870124
vt 0.779185 0.868782
vt 0.806633 0.868728
vt 0.899965 0.920905
vt 0.917945 0.920817
vt 0.922642 0.922171
vt 0.895201 0.922287
vt 0.693682 0.917885
vt 0.698359 0.919241
vt 0.671076 0.919302
vt 0.675772 0.917945
vt 0.675932 0.784353
vt 0.693621 0.784335
vt 0.698296 0.785662
vt 0.671258 0.785724
vt 0.779146 0.849338
vt 0.806594 0.849283
vt 0.698340 0.804816
vt 0.671302 0.804878
vt 0.922724 0.941609
vt 0.895283 0.941725
vt 0.698402 0.938568
vt 0.671119 0.938629
vt 0.679984 0.779916
vt 0.671469 0.687726
vt 0.698195 0.687605
vt 0.671364 0.831916
vt 0.698402 0.831854
vn -0.7318 0.6815 -0.0023
vn -0.6542 0.3796 -0.6542
vn -0.6542 0.3796 0.6542
vn -0.7318 0.6815 0.0023
vn 0.0023 0.6815 -0.7318
vn 0.6542 0.3796 -0.6542
vn -0.0023 0.6815 -0.7318
vn 0.7318 0.6815 -0.0023
vn 0.7318 0.6815 0.0023
vn 0.6542 0.3796 0.6542
vn -0.0023 0.6815 0.7318
vn 0.0023 0.6815 0.7318
vn -0.6777 0.2851 -0.6777
vn -0.1180 0.4612 -0.8794
vn -0.1199 0.5331 -0.8375
vn -0.6348 0.2765 -0.7215
vn -0.8794 0.4612 0.1179
vn -0.7215 0.2765 0.6348
vn -0.8375 0.5331 0.1199
vn -0.8794 0.4612 -0.1180
vn -0.8375 0.5331 -0.1199
vn -0.7215 0.2765 -0.6348
vn 0.1199 0.5331 -0.8375
vn 0.0010 0.5370 0.8436
vn 0.1199 0.5331 0.8375
vn 0.8375 0.5331 -0.1199
vn 0.8375 0.5331 0.1199
vn -0.5773 -0.5773 -0.5773
vn -0.5773 -0.5773 0.5773
vn 0.5773 -0.5773 0.5773
vn 0.5773 -0.5773 -0.5773
vn -0.6778 0.2851 0.6777
vn -0.1180 0.4612 0.8794
vn 0.0018 0.3579 0.9337
vn 0.6348 0.2765 0.7215
vn 0.1180 0.4612 0.8794
vn 0.6778 0.2851 0.6777
vn 0.8794 0.4612 0.1179
vn 0.7215 0.2765 0.6348
vn 0.8794 0.4612 -0.1180
vn 0.7215 0.2765 -0.6348
vn 0.6777 0.2851 -0.6778
vn 0.1179 0.4612 -0.8794
vn 0.6348 0.2765 -0.7215
vn -0.1180 -0.4612 0.8794
vn -0.6778 -0.2851 0.6777
vn -0.8794 -0.4612 0.1179
vn -0.7215 -0.2765 0.6348
vn -0.8375 -0.5331 0.1199
vn -0.8375 -0.5331 -0.1199
vn -0.7215 -0.2765 -0.6348
vn -0.8794 -0.4612 -0.1180
vn -0.6777 -0.2851 -0.6777
vn -0.1180 -0.4612 -0.8794
vn -0.6348 -0.2765 -0.7215
vn -0.1199 -0.5331 -0.8375
vn 0.1199 -0.5331 -0.8375
vn 0.6348 -0.2765 -0.7215
vn 0.1179 -0.4612 -0.8794
vn 0.6777 -0.2851 -0.6778
vn 0.8794 -0.4612 -0.1180
vn 0.7215 -0.2765 -0.6348
vn 0.8375 -0.5331 -0.1199
vn 0.8375 -0.5331 0.1199
vn 0.7215 -0.2765 0.6348
vn 0.8794 -0.4612 0.1179
vn 0.6778 -0.2851 0.6777
vn 0.1180 -0.4612 0.8794
vn 0.6348 -0.2765 0.7215
vn 0.1199 -0.5331 0.8375
vn 0.0010 -0.5370 0.8436
vn -0.7318 -0.6815 -0.0023
vn -0.7318 -0.6815 0.0023
vn -0.6542 -0.3796 0.6542
vn -0.6542 -0.3796 -0.6542
vn 0.0023 -0.6815 -0.7318
vn -0.0023 -0.6815 -0.7318
vn 0.6542 -0.3796 -0.6542
vn 0.7318 -0.6815 -0.0023
vn 0.6542 -0.3796 0.6542
vn 0.7318 -0.6815 0.0023
vn -0.0023 -0.6815 0.7318
vn 0.0023 -0.6815 0.7318
vn -0.5773 0.5773 0.5773
vn -0.5773 0.5773 -0.5773
vn 0.5773 0.5773 0.5773
vn 0.5773 0.5773 -0.5773
vn 0.0018 -0.3579 0.9337
usemtl LevelPieces
s 1
f 37/1/1 31/2/2 30/3/3 38/4/4
f 41/5/5 29/6/6 31/7/2 42/8/7
f 44/9/8 43/10/9 32/11/10 29/12/6
f 40/13/11 30/14/3 32/15/10 39/16/12
f 27/17/13 15/18/14 42/8/7 31/7/2
f 18/19/15 42/8/7 15/18/14 17/20/16
f 4/21/17 3/22/18 1/23/19 38/4/4
f 21/24/20 37/1/1 12/25/21 16/26/22
f 11/27/23 41/5/5 42/8/7 18/19/15
f 7/28/24 40/13/11 39/16/12 20/29/25
f 12/25/21 37/1/1 38/4/4 1/23/19
f 24/30/26 8/31/27 43/10/9 44/9/8
f 27/32/13 31/2/2 37/1/1 21/24/20
f 30/3/3 31/2/2 36/33/28 35/34/29
f 32/15/10 30/14/3 35/35/29 33/36/30
f 31/7/2 29/6/6 34/37/31 36/38/28
f 29/12/6 32/11/10 33/39/30 34/40/31
f 28/41/32 4/21/17 38/4/4 30/3/3
f 28/42/32 30/14/3 40/13/11 5/43/33
f 7/28/24 19/44/34 5/43/33 40/13/11
f 10/45/35 20/29/25 39/16/12 14/46/36
f 14/46/36 39/16/12 32/15/10 25/47/37
f 6/48/38 25/49/37 32/11/10 43/10/9
f 9/50/39 6/48/38 43/10/9 8/31/27
f 24/30/26 44/9/8 13/51/40 23/52/41
f 26/53/42 13/51/40 44/9/8 29/12/6
f 26/54/42 29/6/6 41/5/5 22/55/43
f 22/55/43 41/5/5 11/27/23 2/56/44
f 5/43/33 49/57/45 72/58/46 28/42/32
f 28/41/32 72/59/46 48/60/47 4/21/17
f 3/22/18 4/21/17 48/60/47 47/61/48
f 1/23/19 3/22/18 47/61/48 45/62/49
f 1/23/19 45/62/49 56/63/50 12/25/21
f 16/26/22 12/25/21 56/63/50 60/64/51
f 21/24/20 16/26/22 60/64/51 65/65/52
f 21/24/20 65/65/52 71/66/53 27/32/13
f 27/17/13 71/67/53 59/68/54 15/18/14
f 17/20/16 15/18/14 59/68/54 61/69/55
f 18/19/15 17/20/16 61/69/55 62/70/56
f 18/19/15 62/70/56 55/71/57 11/27/23
f 2/56/44 11/27/23 55/71/57 46/72/58
f 22/55/43 2/56/44 46/72/58 66/73/59
f 22/55/43 66/73/59 70/74/60 26/54/42
f 26/53/42 70/75/60 57/76/61 13/51/40
f 23/52/41 13/51/40 57/76/61 67/77/62
f 24/30/26 23/52/41 67/77/62 68/78/63
f 24/30/26 68/78/63 52/79/64 8/31/27
f 9/50/39 8/31/27 52/79/64 53/80/65
f 6/48/38 9/50/39 53/80/65 50/81/66
f 25/49/37 6/48/38 50/81/66 69/82/67
f 14/46/36 25/47/37 69/83/67 58/84/68
f 10/45/35 14/46/36 58/84/68 54/85/69
f 20/29/25 10/45/35 54/85/69 64/86/70
f 7/28/24 20/29/25 64/86/70 51/87/71
f 81/88/72 82/89/73 74/90/74 75/91/75
f 85/92/76 86/93/77 75/94/75 73/95/78
f 88/96/79 73/97/78 76/98/80 87/99/81
f 84/100/82 83/101/83 76/102/80 74/103/74
f 71/67/53 75/94/75 86/93/77 59/68/54
f 62/70/56 61/69/55 59/68/54 86/93/77
f 48/60/47 82/89/73 45/62/49 47/61/48
f 65/65/52 60/64/51 56/63/50 81/88/72
f 55/71/57 62/70/56 86/93/77 85/92/76
f 51/87/71 64/86/70 83/101/83 84/100/82
f 56/63/50 45/62/49 82/89/73 81/88/72
f 68/78/63 88/96/79 87/99/81 52/79/64
f 71/66/53 65/65/52 81/88/72 75/91/75
f 74/90/74 79/104/84 80/105/85 75/91/75
f 76/102/80 77/106/86 79/107/84 74/103/74
f 75/94/75 80/108/85 78/109/87 73/95/78
f 73/97/78 78/110/87 77/111/86 76/98/80
f 72/59/46 74/90/74 82/89/73 48/60/47
f 72/58/46 49/57/45 84/100/82 74/103/74
f 51/87/71 84/100/82 49/57/45 63/112/88
f 54/85/69 58/84/68 83/101/83 64/86/70
f 58/84/68 69/83/67 76/102/80 83/101/83
f 50/81/66 87/99/81 76/98/80 69/82/67
f 53/80/65 52/79/64 87/99/81 50/81/66
f 68/78/63 67/77/62 57/76/61 88/96/79
f 70/75/60 73/97/78 88/96/79 57/76/61
f 70/74/60 66/73/59 85/92/76 73/95/78
f 66/73/59 46/72/58 55/71/57 85/92/76
f 5/43/33 19/44/34 63/112/88 49/57/45
f 36/113/28 34/114/31 33/36/30 35/35/29
f 80/115/85 79/107/84 77/106/86 78/116/87
