# Blender v3.0.0 OBJ File: 'Final_LowPoly.blend'
# www.blender.org
mtllib Floor.mtl
o Floor_Cube.166
v -1.000000 -0.250000 1.000000
v -1.000000 0.000000 1.000000
v -1.000000 -0.250000 -1.000000
v -1.000000 0.000000 -1.000000
v 1.000000 -0.250000 1.000000
v 1.000000 0.000000 1.000000
v 1.000000 -0.250000 -1.000000
v 1.000000 0.000000 -1.000000
vt 0.142822 0.278480
vt 0.074993 0.278480
vt 0.074993 0.210651
vt 0.142822 0.210651
vt 0.074993 0.142822
vt 0.142822 0.142822
vt 0.074993 0.074993
vt 0.142822 0.074993
vt 0.074993 0.007164
vt 0.142822 0.007164
vt 0.210651 0.142822
vt 0.210651 0.074993
vt 0.007164 0.142822
vt 0.007164 0.074993
vn -0.5773 -0.5773 0.5773
vn -0.5773 0.5773 0.5773
vn -0.5773 0.5773 -0.5773
vn -0.5773 -0.5773 -0.5773
vn 0.5773 0.5773 -0.5773
vn 0.5773 -0.5773 -0.5773
vn 0.5773 0.5773 0.5773
vn 0.5773 -0.5773 0.5773
usemtl LevelPieces
s 1
f 1/1/1 2/2/2 4/3/3 3/4/4
f 3/4/4 4/3/3 8/5/5 7/6/6
f 7/6/6 8/5/5 6/7/7 5/8/8
f 5/8/8 6/7/7 2/9/2 1/10/1
f 3/11/4 7/6/6 5/8/8 1/12/1
f 8/5/5 4/13/3 2/14/2 6/7/7
