# Blender v3.0.0 OBJ File: 'Final_LowPoly.blend'
# www.blender.org
mtllib PathRampCollider_l-Rail.mtl
o PathRampCollider_l-Rail_Cube.004
v 1.000000 -0.250000 1.000000
v 1.000000 0.125000 1.000000
v 1.000000 -0.250000 -0.875000
v 1.000000 2.000000 -0.875000
v -1.000000 -0.250000 1.000000
v -1.000000 0.125000 1.000000
v -1.000000 -0.250000 -0.875000
v -1.000000 2.000000 -0.875000
v 1.000000 2.000000 -0.997890
v 1.000000 -0.250000 -0.997890
v -1.000000 -0.250000 -0.997890
v -1.000000 2.000000 -0.997890
v -0.500000 -0.250000 -0.875000
v -0.500000 2.000000 -0.875000
v -0.500000 -0.250000 1.000000
v -0.500000 0.125000 1.000000
v -0.500000 -0.250000 -0.997890
v -0.500000 2.000000 -0.997890
v -0.500000 3.000000 -0.499404
v -1.000000 3.000000 -0.499404
v -1.000000 1.000000 1.000000
v -0.500000 1.000000 1.000000
v 1.000000 -0.250000 0.062500
v 1.000000 0.581081 0.543919
v -1.000000 -0.250000 0.062500
v -1.000000 0.461460 0.062500
v -0.500000 0.581081 0.543919
v -0.500000 -0.250000 0.062500
v -1.000000 1.000000 0.882352
v -0.500000 1.000000 0.882352
v -0.500000 3.000000 -1.000000
v -1.000000 3.000000 -1.000000
vt 0.375000 0.125000
vt 0.375000 0.250000
vt 0.625000 0.250000
vt 0.625000 0.060811
vt 0.750000 0.500000
vt 0.750000 0.500000
vt 0.750000 0.500000
vt 0.750000 0.500000
vt 0.375000 0.625000
vt 0.375000 0.750000
vt 0.625000 0.750000
vt 0.625000 0.625000
vt 0.375000 0.875000
vt 0.375000 1.000000
vt 0.625000 1.000000
vt 0.625000 0.875000
vt 0.250000 0.625000
vt 0.250000 0.750000
vt 0.750000 0.689189
vt 0.750000 0.750000
vt 0.875000 0.750000
vt 0.875000 0.689189
vt 0.375000 0.375000
vt 0.375000 0.500000
vt 0.625000 0.500000
vt 0.625000 0.375000
vt 0.375000 0.250000
vt 0.625000 0.250000
vt 0.625000 0.500000
vt 0.375000 0.500000
vt 0.250000 0.500000
vt 0.250000 0.500000
vt 0.125000 0.500000
vt 0.125000 0.500000
vt 0.625000 0.500000
vt 0.625000 0.500000
vt 0.125000 0.625000
vt 0.125000 0.750000
vt 0.875000 0.500000
vt 0.875000 0.500000
vt 0.625000 0.730384
vt 0.625000 0.750000
vt 0.750000 0.750000
vt 0.750000 0.730384
vt 0.625000 0.875000
vt 0.375000 0.000000
vt 0.625000 0.000000
vn 1.0000 0.0000 0.0000
vn -1.0000 0.0000 0.0000
vn 0.0000 0.0000 1.0000
vn 0.0000 -1.0000 0.0000
vn 0.0000 0.7071 0.7071
vn 0.0000 0.0000 -1.0000
vn 0.0000 1.0000 0.0000
vn 0.0000 0.5684 0.8227
vn 0.0000 -0.0021 -1.0000
usemtl None
s off
f 23/1/1 3/2/1 4/3/1 24/4/1
f 14/5/1 18/6/1 31/7/1 19/8/1
f 25/9/2 5/10/2 6/11/2 26/12/2
f 15/13/3 1/14/3 2/15/3 16/16/3
f 28/17/4 15/18/4 5/10/4 25/9/4
f 27/19/5 16/20/5 2/21/5 24/22/5
f 17/23/6 11/24/6 12/25/6 18/26/6
f 3/2/1 10/27/1 9/28/1 4/3/1
f 8/29/2 12/25/2 11/24/2 7/30/2
f 13/31/4 17/32/4 10/33/4 3/34/4
f 7/30/4 11/24/4 17/32/4 13/31/4
f 10/27/6 17/23/6 18/26/6 9/28/6
f 19/8/7 31/7/7 32/35/7 20/36/7
f 23/37/4 1/38/4 15/18/4 28/17/4
f 5/10/3 15/13/3 16/16/3 6/11/3
f 4/39/7 9/40/7 18/6/7 14/5/7
f 29/41/7 21/42/7 22/43/7 30/44/7
f 16/16/3 22/45/3 21/42/3 6/11/3
f 26/12/2 29/41/2 20/36/2 8/29/2
f 27/19/1 30/44/1 22/43/1 16/20/1
f 14/5/1 19/8/1 30/44/1 27/19/1
f 6/11/2 21/42/2 29/41/2 26/12/2
f 20/36/8 29/41/8 30/44/8 19/8/8
f 3/34/4 23/37/4 28/17/4 13/31/4
f 14/5/5 27/19/5 24/22/5 4/39/5
f 13/31/4 28/17/4 25/9/4 7/30/4
f 7/30/2 25/9/2 26/12/2 8/29/2
f 1/46/1 23/1/1 24/4/1 2/47/1
f 32/35/9 31/7/9 18/26/9 12/25/9
f 12/25/2 8/29/2 20/36/2 32/35/2
