# Blender v3.0.0 OBJ File: 'Final_LowPoly.blend'
# www.blender.org
mtllib Ramp.mtl
o Ramp_Plane
v 1.000000 2.000000 -0.750000
v 1.000000 2.000000 -1.000000
v 1.000000 1.750000 -0.750000
v 1.000000 1.750000 -0.500000
v 1.000000 1.500000 -0.500000
v -1.000000 1.500000 -0.250000
v 1.000000 1.500000 -0.250000
v 1.000000 1.250000 -0.250000
v 1.000000 1.250000 0.000000
v 1.000000 1.000000 0.000000
v 1.000000 1.000000 0.250000
v 1.000000 0.750000 0.250000
v 1.000000 0.750000 0.500000
v 1.000000 0.500000 0.500000
v 1.000000 0.500000 0.750000
v 1.000000 0.250000 0.750000
v -1.000000 0.250000 0.991587
v 1.000000 0.250000 0.991587
v -1.000000 -0.250000 0.991587
v 1.000000 -0.250000 0.991587
v -1.000000 0.312500 -1.000000
v -1.000000 1.437500 -1.000000
v 1.000000 -0.250000 -1.000000
v -1.000000 -0.250000 -0.004207
v 1.000000 -0.250000 0.493690
v 1.000000 1.437500 -1.000000
v 1.000000 0.916667 -0.500701
v 1.000000 0.312500 -1.000000
v 1.000000 -0.250000 -0.004207
v 1.000000 0.375000 -0.002103
v -1.000000 2.000000 -0.750000
v -1.000000 2.000000 -1.000000
v -1.000000 1.750000 -0.750000
v -1.000000 1.750000 -0.500000
v -1.000000 1.500000 -0.500000
v -1.000000 1.250000 -0.250000
v -1.000000 1.250000 0.000000
v -1.000000 1.000000 0.000000
v -1.000000 1.000000 0.250000
v -1.000000 0.750000 0.250000
v -1.000000 0.750000 0.500000
v -1.000000 0.500000 0.500000
v -1.000000 0.500000 0.750000
v -1.000000 0.250000 0.750000
v -1.000000 -0.250000 -1.000000
v -1.000000 -0.250000 0.493690
v -1.000000 0.916667 -0.500701
v -1.000000 0.375000 -0.002103
vt 0.526748 0.017353
vt 0.445234 0.017353
vt 0.445234 0.007164
vt 0.526748 0.007164
vt 0.526748 0.027543
vt 0.445234 0.027543
vt 0.526748 0.037732
vt 0.445234 0.037732
vt 0.526748 0.047921
vt 0.445234 0.047921
vt 0.526748 0.058111
vt 0.445234 0.058111
vt 0.526748 0.068300
vt 0.445234 0.068300
vt 0.526748 0.078489
vt 0.445234 0.078489
vt 0.526748 0.088679
vt 0.445234 0.088679
vt 0.526748 0.098868
vt 0.445234 0.098868
vt 0.526748 0.109057
vt 0.445234 0.109057
vt 0.526748 0.119247
vt 0.445234 0.119247
vt 0.526748 0.129436
vt 0.445234 0.129436
vt 0.526748 0.139625
vt 0.445234 0.139625
vt 0.526748 0.149815
vt 0.445234 0.149815
vt 0.526748 0.159661
vt 0.445234 0.159661
vt 0.526748 0.180040
vt 0.445234 0.180040
vt 0.007164 0.455495
vt 0.007164 0.373980
vt 0.030090 0.373980
vt 0.030090 0.455495
vt 0.075942 0.373980
vt 0.075942 0.455495
vt 0.098868 0.373980
vt 0.098868 0.455495
vt 0.007164 0.363791
vt 0.017353 0.363791
vt 0.526748 0.200333
vt 0.445234 0.200333
vt 0.526748 0.220626
vt 0.445234 0.220626
vt 0.526748 0.261212
vt 0.445234 0.261211
vt 0.017353 0.353602
vt 0.027543 0.353602
vt 0.051318 0.353630
vt 0.027543 0.343412
vt 0.037732 0.343412
vt 0.037732 0.333223
vt 0.047921 0.333223
vt 0.073395 0.333309
vt 0.098868 0.333394
vt 0.047921 0.323034
vt 0.058111 0.323034
vt 0.058111 0.312844
vt 0.068300 0.312844
vt 0.098868 0.313101
vt 0.068300 0.302655
vt 0.078489 0.302655
vt 0.078489 0.292809
vt 0.098868 0.292809
vt 0.017353 0.465684
vt 0.007164 0.465684
vt 0.027543 0.475874
vt 0.017353 0.475874
vt 0.051318 0.475845
vt 0.037732 0.486063
vt 0.027543 0.486063
vt 0.047921 0.496252
vt 0.037732 0.496252
vt 0.073395 0.496166
vt 0.098868 0.496081
vt 0.058111 0.506442
vt 0.047921 0.506442
vt 0.068300 0.516631
vt 0.058111 0.516631
vt 0.098868 0.516374
vt 0.078489 0.526820
vt 0.068300 0.526820
vt 0.098868 0.536667
vt 0.078489 0.536667
vn -0.5773 0.5773 0.5773
vn 0.5773 0.5773 0.5773
vn 0.5773 0.5773 -0.5773
vn -0.5773 0.5773 -0.5773
vn -0.9045 0.3015 0.3015
vn 0.9045 0.3015 0.3015
vn -0.5773 -0.5773 0.5773
vn 0.5773 -0.5773 0.5773
vn 0.7071 0.0000 -0.7071
vn -0.7071 0.0000 -0.7071
vn 0.5773 -0.5773 -0.5773
vn -0.5773 -0.5773 -0.5773
vn -0.7071 -0.7071 0.0000
vn 0.7071 -0.7071 0.0000
vn 1.0000 0.0000 0.0000
vn -1.0000 0.0000 0.0000
usemtl LevelPieces
s 1
f 31/1/1 1/2/2 2/3/3 32/4/4
f 1/2/2 31/1/1 33/5/5 3/6/6
f 3/6/6 33/5/5 34/7/1 4/8/2
f 4/8/2 34/7/1 35/9/5 5/10/6
f 5/10/6 35/9/5 6/11/1 7/12/2
f 7/12/2 6/11/1 36/13/5 8/14/6
f 8/14/6 36/13/5 37/15/1 9/16/2
f 9/16/2 37/15/1 38/17/5 10/18/6
f 10/18/6 38/17/5 39/19/1 11/20/2
f 11/20/2 39/19/1 40/21/5 12/22/6
f 12/22/6 40/21/5 41/23/1 13/24/2
f 13/24/2 41/23/1 42/25/5 14/26/6
f 14/26/6 42/25/5 43/27/1 15/28/2
f 15/28/2 43/27/1 44/29/5 16/30/6
f 16/30/6 44/29/5 17/31/1 18/32/2
f 18/32/2 17/31/1 19/33/7 20/34/8
f 32/35/4 2/36/3 26/37/9 22/38/10
f 22/38/10 26/37/9 28/39/9 21/40/10
f 21/40/10 28/39/9 23/41/11 45/42/12
f 2/36/3 1/43/2 3/44/6 26/37/9
f 19/33/7 46/45/13 25/46/14 20/34/8
f 46/45/13 24/47/13 29/48/14 25/46/14
f 24/47/13 45/49/12 23/50/11 29/48/14
f 3/44/6 4/51/2 5/52/6 26/37/9
f 28/39/9 26/37/9 5/52/6 27/53/15
f 5/52/6 7/54/2 8/55/6 27/53/15
f 8/55/6 9/56/2 10/57/6 27/53/15
f 28/39/9 27/53/15 10/57/6 30/58/15
f 23/41/11 28/39/9 30/58/15 29/59/14
f 10/57/6 11/60/2 12/61/6 30/58/15
f 12/61/6 13/62/2 14/63/6 30/58/15
f 29/59/14 30/58/15 14/63/6 25/64/14
f 14/63/6 15/65/2 16/66/6 25/64/14
f 16/66/6 18/67/2 20/68/8 25/64/14
f 32/35/4 22/38/10 33/69/5 31/70/1
f 33/69/5 22/38/10 35/71/5 34/72/1
f 21/40/10 47/73/16 35/71/5 22/38/10
f 35/71/5 47/73/16 36/74/5 6/75/1
f 36/74/5 47/73/16 38/76/5 37/77/1
f 21/40/10 48/78/16 38/76/5 47/73/16
f 45/42/12 24/79/13 48/78/16 21/40/10
f 38/76/5 48/78/16 40/80/5 39/81/1
f 40/80/5 48/78/16 42/82/5 41/83/1
f 24/79/13 46/84/13 42/82/5 48/78/16
f 42/82/5 46/84/13 44/85/5 43/86/1
f 44/85/5 46/84/13 19/87/7 17/88/1
