# Blender v3.0.0 OBJ File: 'Final_LowPoly.blend'
# www.blender.org
mtllib WallCorner.mtl
o WallCorner_Plane.005
v 0.500000 1.747633 -0.750000
v 1.000000 1.747633 -0.750000
v 0.500000 1.747633 -1.000000
v 1.000000 1.747633 -1.000000
v 0.666667 1.747633 -0.750000
v 0.950000 1.747633 -0.750000
v 0.950000 1.747633 -1.000000
v 0.666667 1.747633 -1.000000
v 0.666667 1.747633 -0.250000
v 0.950000 1.747633 -0.250000
v 0.666667 1.747633 0.250002
v 0.950000 1.747633 0.250002
v 0.666667 1.747633 0.666686
v 0.950000 1.747633 0.750000
v 1.000000 1.747633 -0.250000
v 1.000000 1.747633 0.250002
v 0.500000 1.747633 -0.250000
v 0.500000 1.747633 0.250002
v 0.500000 0.000000 -0.750000
v 0.500000 0.000000 -1.000000
v 1.000000 0.000000 -1.000000
v 0.666667 0.000000 -1.000000
v 0.666667 0.000000 0.666686
v 0.500000 0.000000 -0.250000
v 1.000000 1.747633 0.750000
v 1.000000 0.000000 0.750000
v 1.000000 1.747633 1.000000
v -0.750000 1.747633 0.500000
v -0.750000 1.747633 1.000000
v -1.000000 1.747633 0.500000
v -1.000000 1.747633 1.000000
v -0.750000 1.747633 0.666667
v -0.750000 1.747633 0.950000
v -1.000000 1.747633 0.950000
v -1.000000 1.747633 0.666667
v -0.250000 1.747633 0.666667
v -0.250000 1.747633 0.950000
v 0.250002 1.747633 0.666667
v 0.250002 1.747633 0.950000
v 0.750000 1.747633 0.950000
v -0.250000 1.747633 1.000000
v 0.250002 1.747633 1.000000
v -0.250000 1.747633 0.500000
v 0.250002 1.747633 0.500000
v -0.750000 0.000000 0.666667
v -0.750000 0.000000 0.950000
v -1.000000 0.000000 0.666667
v -0.250000 0.000000 0.666667
v -0.250000 0.000000 0.950000
v 0.250002 0.000000 0.666667
v -0.250000 0.000000 1.000000
v -0.250000 0.000000 0.500000
v 0.250002 0.000000 0.500000
v 0.854562 1.747633 0.854562
v 0.750000 1.747633 1.000000
v 0.750000 0.000000 1.000000
v 0.870438 1.747633 0.870438
v 1.000000 0.000000 1.000000
v 1.000000 0.000000 -0.750000
v 0.666667 0.000000 -0.750000
v 0.950000 0.000000 -0.750000
v 0.950000 0.000000 -1.000000
v 0.666667 0.000000 -0.250000
v 0.950000 0.000000 -0.250000
v 0.666667 0.000000 0.250002
v 0.950000 0.000000 0.250002
v 0.950000 0.000000 0.750000
v 1.000000 0.000000 -0.250000
v 1.000000 0.000000 0.250002
v 0.500000 0.000000 0.250002
v -0.750000 0.000000 0.500000
v -0.750000 0.000000 1.000000
v -1.000000 0.000000 0.500000
v -1.000000 0.000000 1.000000
v -1.000000 0.000000 0.950000
v 0.250002 0.000000 0.950000
v 0.750000 0.000000 0.950000
v 0.250002 0.000000 1.000000
v 0.854562 0.000000 0.854562
v 0.870438 0.000000 0.870438
vt 0.759851 0.091353
vt 0.762256 0.091353
vt 0.762256 0.103380
vt 0.759851 0.103380
vt 0.738202 0.091353
vt 0.746221 0.091353
vt 0.746221 0.103380
vt 0.738202 0.103380
vt 0.746221 0.067299
vt 0.759851 0.067299
vt 0.746221 0.043245
vt 0.759851 0.043245
vt 0.746221 0.023199
vt 0.759851 0.019191
vt 0.762256 0.043245
vt 0.762256 0.067299
vt 0.738202 0.067299
vt 0.738202 0.043245
vt 0.309055 0.202805
vt 0.309055 0.226859
vt 0.224980 0.226859
vt 0.224980 0.202805
vt 0.309055 0.111400
vt 0.309055 0.119418
vt 0.224980 0.119418
vt 0.224980 0.111400
vt 0.309055 0.007164
vt 0.309055 0.027210
vt 0.224980 0.027210
vt 0.224980 0.007164
vt 0.309055 0.149886
vt 0.309055 0.173940
vt 0.224980 0.173940
vt 0.224980 0.149886
vt 0.309055 0.091354
vt 0.309055 0.099372
vt 0.224980 0.099373
vt 0.224980 0.091354
vt 0.309055 0.176346
vt 0.309055 0.200400
vt 0.224980 0.200400
vt 0.224980 0.176346
vt 0.309055 0.067300
vt 0.224980 0.067300
vt 0.309055 0.133048
vt 0.309055 0.135454
vt 0.224980 0.135454
vt 0.224980 0.133048
vt 0.309055 0.035228
vt 0.309055 0.059282
vt 0.224980 0.059282
vt 0.224980 0.035228
vt 0.309055 0.147481
vt 0.224980 0.147481
vt 0.309055 0.229265
vt 0.224980 0.229265
vt 0.309055 0.241292
vt 0.224980 0.241292
vt 0.678067 0.009569
vt 0.666040 0.009569
vt 0.666040 0.007164
vt 0.678067 0.007164
vt 0.678067 0.031218
vt 0.666040 0.031218
vt 0.666040 0.023200
vt 0.678067 0.023200
vt 0.702121 0.009569
vt 0.702121 0.023200
vt 0.726175 0.009569
vt 0.726175 0.023200
vt 0.750229 0.009569
vt 0.702121 0.007164
vt 0.726175 0.007164
vt 0.726175 0.031218
vt 0.702121 0.031218
vt 0.309055 0.279778
vt 0.224980 0.279778
vt 0.224980 0.255724
vt 0.309055 0.255724
vt 0.309055 0.371184
vt 0.224980 0.371184
vt 0.224980 0.363166
vt 0.309055 0.363166
vt 0.309055 0.475418
vt 0.224980 0.475418
vt 0.224980 0.455373
vt 0.309055 0.455373
vt 0.309055 0.332697
vt 0.224980 0.332697
vt 0.224980 0.308643
vt 0.309055 0.308643
vt 0.309055 0.391229
vt 0.224980 0.391229
vt 0.224980 0.383211
vt 0.309055 0.383211
vt 0.309055 0.306238
vt 0.224980 0.306238
vt 0.224980 0.282184
vt 0.309055 0.282184
vt 0.309055 0.415283
vt 0.224980 0.415283
vt 0.309055 0.349535
vt 0.224980 0.349535
vt 0.224980 0.347130
vt 0.309055 0.347130
vt 0.309055 0.447355
vt 0.224980 0.447355
vt 0.224980 0.423301
vt 0.309055 0.423301
vt 0.309055 0.335103
vt 0.224980 0.335103
vt 0.224980 0.253319
vt 0.309055 0.253319
vt 0.756024 0.013397
vt 0.755260 0.014161
vt 0.750229 0.007164
vt 0.762256 0.019191
vt 0.762256 0.007164
vt 0.677324 0.153724
vt 0.665297 0.153724
vt 0.665297 0.151318
vt 0.677324 0.151318
vt 0.677324 0.175372
vt 0.665297 0.175372
vt 0.665297 0.167354
vt 0.677324 0.167354
vt 0.701379 0.153724
vt 0.701379 0.167354
vt 0.725433 0.153724
vt 0.725433 0.167354
vt 0.749487 0.153724
vt 0.745479 0.167354
vt 0.701379 0.151318
vt 0.725433 0.151318
vt 0.725433 0.175372
vt 0.701379 0.175372
vt 0.759108 0.235508
vt 0.761514 0.235508
vt 0.761514 0.247535
vt 0.759108 0.247535
vt 0.737460 0.235508
vt 0.745478 0.235508
vt 0.745478 0.247535
vt 0.737460 0.247535
vt 0.745478 0.211454
vt 0.759108 0.211454
vt 0.745478 0.187399
vt 0.759108 0.187399
vt 0.759108 0.163345
vt 0.761514 0.187399
vt 0.761514 0.211454
vt 0.737460 0.211454
vt 0.737460 0.187399
vt 0.755281 0.157551
vt 0.761514 0.163345
vt 0.754517 0.158315
vt 0.749487 0.151318
vt 0.761514 0.151318
vn 0.3015 0.9045 0.3015
vn 0.5773 0.5773 0.5773
vn 0.5773 0.5773 -0.5773
vn 0.0000 0.7071 -0.7071
vn -0.5773 0.5773 0.5773
vn -0.3015 0.9045 0.3015
vn -0.5773 0.5773 -0.5773
vn -0.3015 0.9045 -0.3015
vn 0.3015 0.9045 -0.3015
vn 0.3015 -0.9045 -0.3015
vn 0.3015 -0.9045 0.3015
vn 0.0000 -0.7071 -0.7071
vn -0.5773 -0.5773 -0.5773
vn -0.3015 -0.9045 0.3015
vn -0.3015 -0.9045 -0.3015
vn -0.5773 -0.5773 0.5773
vn 0.5773 -0.5773 0.5773
vn 0.5773 -0.5773 -0.5773
vn -0.7071 0.7071 0.0000
vn -0.7071 -0.7071 0.0000
vn 0.0000 1.0000 0.0000
vn 0.0000 -1.0000 0.0000
usemtl LevelPieces
s 1
f 6/1/1 2/2/2 4/3/3 7/4/4
f 1/5/5 5/6/6 8/7/4 3/8/7
f 5/6/6 6/1/1 7/4/4 8/7/4
f 6/1/1 5/6/6 9/9/8 10/10/9
f 10/10/9 9/9/8 11/11/6 12/12/1
f 12/12/1 11/11/6 13/13/8 14/14/9
f 10/10/9 12/12/1 16/15/2 15/16/3
f 11/11/6 9/9/8 17/17/7 18/18/5
f 12/19/1 14/20/9 67/21/10 66/22/11
f 3/23/7 8/24/4 22/25/12 20/26/13
f 13/27/8 11/28/6 65/29/14 23/30/15
f 6/31/1 10/32/9 64/33/10 61/34/11
f 5/35/6 1/36/5 19/37/16 60/38/14
f 15/39/3 16/40/2 69/41/17 68/42/18
f 9/43/8 5/35/6 60/38/14 63/44/15
f 10/32/9 15/39/3 68/42/18 64/33/10
f 7/45/4 4/46/3 21/47/18 62/48/12
f 16/40/2 12/19/1 66/22/11 69/41/17
f 8/24/4 7/45/4 62/48/12 22/25/12
f 18/49/5 17/50/7 24/51/13 70/52/16
f 1/36/5 3/23/7 20/26/13 19/37/16
f 11/28/6 18/49/5 70/52/16 65/29/14
f 2/53/2 6/31/1 61/34/11 59/54/17
f 17/50/7 9/43/8 63/44/15 24/51/13
f 4/46/3 2/53/2 59/54/17 21/47/18
f 67/21/10 14/20/9 25/55/3 26/56/18
f 26/56/18 25/55/3 27/57/2 58/58/17
f 33/59/1 34/60/19 31/61/5 29/62/2
f 28/63/3 30/64/7 35/65/19 32/66/9
f 32/66/9 35/65/19 34/60/19 33/59/1
f 33/59/1 37/67/6 36/68/8 32/66/9
f 37/67/6 39/69/1 38/70/9 36/68/8
f 39/69/1 40/71/6 13/13/8 38/70/9
f 37/67/6 41/72/5 42/73/2 39/69/1
f 38/70/9 44/74/3 43/75/7 36/68/8
f 39/76/1 76/77/11 77/78/14 40/79/6
f 30/80/7 73/81/13 47/82/20 35/83/19
f 13/84/8 23/85/15 50/86/10 38/87/9
f 33/88/1 46/89/11 49/90/14 37/91/6
f 32/92/9 45/93/10 71/94/18 28/95/3
f 41/96/5 51/97/16 78/98/17 42/99/2
f 36/100/8 48/101/15 45/93/10 32/92/9
f 37/91/6 49/90/14 51/97/16 41/96/5
f 34/102/19 75/103/20 74/104/16 31/105/5
f 42/99/2 78/98/17 76/77/11 39/76/1
f 35/83/19 47/82/20 75/103/20 34/102/19
f 44/106/3 53/107/18 52/108/13 43/109/7
f 28/95/3 71/94/18 73/81/13 30/80/7
f 38/87/9 50/86/10 53/107/18 44/106/3
f 29/110/2 72/111/17 46/89/11 33/88/1
f 43/109/7 52/108/13 48/101/15 36/100/8
f 31/105/5 74/104/16 72/111/17 29/110/2
f 77/78/14 56/112/16 55/113/5 40/79/6
f 56/112/16 58/58/17 27/57/2 55/113/5
f 57/114/21 54/115/21 40/71/6 55/116/5
f 25/117/3 14/14/9 54/115/21 57/114/21
f 13/13/8 40/71/6 54/115/21 14/14/9
f 27/118/2 25/117/3 57/114/21 55/116/5
f 61/119/11 62/120/12 21/121/18 59/122/17
f 19/123/16 20/124/13 22/125/12 60/126/14
f 60/126/14 22/125/12 62/120/12 61/119/11
f 61/119/11 64/127/10 63/128/15 60/126/14
f 64/127/10 66/129/11 65/130/14 63/128/15
f 66/129/11 67/131/10 23/132/15 65/130/14
f 64/127/10 68/133/18 69/134/17 66/129/11
f 65/130/14 70/135/16 24/136/13 63/128/15
f 46/137/11 72/138/17 74/139/16 75/140/20
f 71/141/18 45/142/10 47/143/20 73/144/13
f 45/142/10 46/137/11 75/140/20 47/143/20
f 46/137/11 45/142/10 48/145/15 49/146/14
f 49/146/14 48/145/15 50/147/10 76/148/11
f 76/148/11 50/147/10 23/132/15 77/149/14
f 49/146/14 76/148/11 78/150/17 51/151/16
f 50/147/10 48/145/15 52/152/13 53/153/18
f 80/154/22 56/155/16 77/149/14 79/156/22
f 26/157/18 80/154/22 79/156/22 67/131/10
f 23/132/15 67/131/10 79/156/22 77/149/14
f 58/158/17 56/155/16 80/154/22 26/157/18
