# Blender v3.0.0 OBJ File: 'Final_LowPoly.blend'
# www.blender.org
mtllib Wall.mtl
o Wall_Plane.006
v 0.500000 1.747633 -0.750000
v 1.000000 1.747633 -0.750000
v 0.500000 1.747633 -1.000000
v 1.000000 1.747633 -1.000000
v 0.666667 1.747633 -0.750000
v 0.950000 1.747633 -0.750000
v 0.950000 1.747633 -1.000000
v 0.666667 1.747633 -1.000000
v 0.666667 1.747633 -0.250000
v 0.950000 1.747633 -0.250000
v 1.000000 1.747633 -0.250000
v 0.500000 1.747633 -0.250000
v 0.500000 0.000000 -0.750000
v 1.000000 0.000000 -0.750000
v 0.500000 0.000000 -1.000000
v 1.000000 0.000000 -1.000000
v 0.666667 0.000000 -0.750000
v 0.500000 0.000000 -0.250000
v 0.500000 1.747633 0.750000
v 1.000000 1.747633 0.750000
v 0.500000 1.747633 1.000000
v 1.000000 1.747633 1.000000
v 0.666667 1.747633 0.750000
v 0.950000 1.747633 0.750000
v 0.950000 1.747633 1.000000
v 0.666667 1.747633 1.000000
v 0.666667 1.747633 0.250000
v 0.950000 1.747633 0.250000
v 1.000000 1.747633 0.250000
v 0.500000 1.747633 0.250000
v 1.000000 0.000000 1.000000
v 0.950000 0.000000 0.750000
v 0.950000 0.000000 1.000000
v 0.666667 0.000000 1.000000
v 0.666667 0.000000 0.250000
v 1.000000 0.000000 0.250000
v 0.500000 0.000000 0.250000
v 0.950000 0.000000 0.250000
v 0.666667 0.000000 0.750000
v 0.500000 0.000000 1.000000
v 1.000000 0.000000 0.750000
v 0.500000 0.000000 0.750000
v 1.000000 0.000000 -0.250000
v 0.950000 0.000000 -0.250000
v 0.666667 0.000000 -0.250000
v 0.666667 0.000000 -1.000000
v 0.950000 0.000000 -1.000000
v 0.950000 0.000000 -0.750000
vt 0.759316 0.804689
vt 0.761418 0.804689
vt 0.761418 0.815194
vt 0.759316 0.815194
vt 0.740407 0.804689
vt 0.747410 0.804689
vt 0.747410 0.815194
vt 0.740407 0.815194
vt 0.747410 0.783678
vt 0.759316 0.783678
vt 0.518672 0.408609
vt 0.518672 0.415612
vt 0.445234 0.415613
vt 0.445234 0.408609
vt 0.518672 0.442226
vt 0.518672 0.463237
vt 0.445234 0.463237
vt 0.445234 0.442226
vt 0.518672 0.391100
vt 0.518672 0.398103
vt 0.445234 0.398103
vt 0.445234 0.391100
vt 0.518672 0.370089
vt 0.445234 0.370089
vt 0.518672 0.465338
vt 0.445234 0.465338
vt 0.518672 0.427519
vt 0.518672 0.429620
vt 0.445234 0.429620
vt 0.445234 0.427519
vt 0.518672 0.440125
vt 0.445234 0.440125
vt 0.518672 0.363085
vt 0.445234 0.363085
vt 0.759316 0.741656
vt 0.759316 0.731150
vt 0.761418 0.731150
vt 0.761418 0.741656
vt 0.740407 0.741656
vt 0.740407 0.731150
vt 0.747410 0.731150
vt 0.747410 0.741656
vt 0.759316 0.762667
vt 0.747410 0.762667
vt 0.518672 0.296551
vt 0.445234 0.296551
vt 0.445234 0.289547
vt 0.518672 0.289547
vt 0.518672 0.509461
vt 0.445234 0.509461
vt 0.445234 0.488450
vt 0.518672 0.488450
vt 0.518672 0.314060
vt 0.445234 0.314060
vt 0.445234 0.307056
vt 0.518672 0.307056
vt 0.518672 0.335071
vt 0.445234 0.335071
vt 0.445234 0.486349
vt 0.518672 0.486349
vt 0.518672 0.277641
vt 0.445234 0.277641
vt 0.445234 0.275540
vt 0.518672 0.275540
vt 0.518672 0.511562
vt 0.445234 0.511562
vt 0.518672 0.342074
vt 0.445234 0.342074
vt 0.518672 0.522068
vt 0.445234 0.522068
vt 0.742508 0.685306
vt 0.740407 0.685306
vt 0.740407 0.664295
vt 0.742508 0.664295
vt 0.754414 0.664295
vt 0.754414 0.685306
vt 0.761418 0.685306
vt 0.761418 0.664295
vt 0.742508 0.643284
vt 0.754414 0.643284
vt 0.742508 0.632779
vt 0.754414 0.632779
vt 0.740407 0.783678
vt 0.740407 0.762667
vt 0.761418 0.762667
vt 0.761418 0.783678
vt 0.761418 0.643284
vt 0.761418 0.632779
vt 0.740407 0.643284
vt 0.740407 0.632779
vt 0.742508 0.706317
vt 0.754414 0.706317
vt 0.754414 0.716822
vt 0.742508 0.716822
vt 0.761418 0.706317
vt 0.761418 0.716822
vt 0.740407 0.716822
vt 0.740407 0.706317
vn 0.3015 0.9045 0.3015
vn 0.5773 0.5773 0.5773
vn 0.5773 0.5773 -0.5773
vn 0.0000 0.7071 -0.7071
vn -0.5773 0.5773 0.5773
vn -0.3015 0.9045 0.3015
vn -0.5773 0.5773 -0.5773
vn -0.3015 0.9045 -0.3015
vn 0.3015 0.9045 -0.3015
vn 0.0000 -0.7071 -0.7071
vn -0.5773 -0.5773 -0.5773
vn 0.3015 -0.9045 -0.3015
vn 0.3015 -0.9045 0.3015
vn -0.5773 -0.5773 0.5773
vn -0.3015 -0.9045 0.3015
vn -0.3015 -0.9045 -0.3015
vn 0.5773 -0.5773 -0.5773
vn 0.5773 -0.5773 0.5773
vn 0.0000 0.7071 0.7071
vn 0.0000 -0.7071 0.7071
usemtl LevelPieces
s 1
f 6/1/1 2/2/2 4/3/3 7/4/4
f 1/5/5 5/6/6 8/7/4 3/8/7
f 5/6/6 6/1/1 7/4/4 8/7/4
f 6/1/1 5/6/6 9/9/8 10/10/9
f 3/11/7 8/12/4 46/13/10 15/14/11
f 6/15/1 10/16/9 44/17/12 48/18/13
f 5/19/6 1/20/5 13/21/14 17/22/15
f 9/23/8 5/19/6 17/22/15 45/24/16
f 10/16/9 11/25/3 43/26/17 44/17/12
f 7/27/4 4/28/3 16/29/17 47/30/10
f 8/12/4 7/27/4 47/30/10 46/13/10
f 1/20/5 3/11/7 15/14/11 13/21/14
f 2/31/2 6/15/1 48/18/13 14/32/18
f 12/33/7 9/23/8 45/24/16 18/34/11
f 4/28/3 2/31/2 14/32/18 16/29/17
f 24/35/9 25/36/19 22/37/2 20/38/3
f 19/39/7 21/40/5 26/41/19 23/42/8
f 23/42/8 26/41/19 25/36/19 24/35/9
f 24/35/9 28/43/1 27/44/6 23/42/8
f 21/45/5 40/46/14 34/47/20 26/48/19
f 24/49/9 32/50/12 38/51/13 28/52/1
f 23/53/8 39/54/16 42/55/11 19/56/7
f 27/57/6 35/58/15 39/54/16 23/53/8
f 28/52/1 38/51/13 36/59/18 29/60/2
f 25/61/19 33/62/20 31/63/18 22/64/2
f 26/48/19 34/47/20 33/62/20 25/61/19
f 19/56/7 42/55/11 40/46/14 21/45/5
f 20/65/3 41/66/17 32/50/12 24/49/9
f 30/67/5 37/68/14 35/58/15 27/57/6
f 22/69/2 31/70/18 41/66/17 20/65/3
f 44/71/12 43/72/17 36/73/18 38/74/13
f 44/71/12 38/74/13 35/75/15 45/76/16
f 18/77/11 45/76/16 35/75/15 37/78/14
f 32/79/12 39/80/16 35/75/15 38/74/13
f 39/80/16 32/79/12 33/81/20 34/82/20
f 18/34/11 37/68/14 30/67/5 12/33/7
f 12/83/7 30/84/5 27/44/6 9/9/8
f 10/10/9 9/9/8 27/44/6 28/43/1
f 10/10/9 28/43/1 29/85/2 11/86/3
f 11/25/3 29/60/2 36/59/18 43/26/17
f 42/87/11 39/80/16 34/82/20 40/88/14
f 32/79/12 41/89/17 31/90/18 33/81/20
f 48/91/13 44/71/12 45/76/16 17/92/15
f 17/92/15 46/93/10 47/94/10 48/91/13
f 13/95/14 15/96/11 46/93/10 17/92/15
f 48/91/13 47/94/10 16/97/17 14/98/18
