# Blender v3.0.0 OBJ File: 'Final_LowPoly.blend'
# www.blender.org
mtllib WindowedWall.mtl
o WindowedWall_Plane.003
v 0.500000 1.747633 -0.750000
v 1.000000 1.747633 -0.750000
v 0.500000 1.747633 -1.000000
v 1.000000 1.747633 -1.000000
v 0.666667 1.747633 -0.750000
v 0.950000 1.747633 -0.750000
v 0.950000 1.747633 -1.000000
v 0.666667 1.747633 -1.000000
v 0.666667 1.747633 -0.250000
v 0.950000 1.747633 -0.250000
v 1.000000 1.747633 -0.250000
v 0.500000 1.747633 -0.250000
v 0.500000 1.541706 -0.750000
v 1.000000 1.541706 -0.750000
v 0.500000 1.541706 -1.000000
v 1.000000 1.541706 -1.000000
v 0.666667 1.541706 -0.750000
v 0.950000 1.541706 -0.750000
v 0.950000 1.541706 -1.000000
v 0.666667 1.541706 -1.000000
v 0.666667 1.541706 -0.250000
v 0.950000 1.541706 -0.250000
v 1.000000 1.541706 -0.250000
v 0.500000 1.541706 -0.250000
v 0.500000 0.583294 -0.750000
v 1.000000 0.583294 -0.750000
v 0.500000 0.583294 -1.000000
v 1.000000 0.583294 -1.000000
v 0.666667 0.583294 -0.750000
v 0.950000 0.583294 -1.000000
v 0.666667 0.583294 -1.000000
v 0.666667 0.583294 -0.250000
v 0.950000 0.583294 -0.250000
v 1.000000 0.583294 -0.250000
v 0.950000 0.583294 -0.750000
v 0.500000 0.583294 -0.250000
v 0.500000 0.000000 -0.750000
v 0.950000 0.000000 -0.750000
v 0.950000 0.000000 -1.000000
v 0.666667 0.000000 -1.000000
v 1.000000 0.000000 -0.250000
v 1.000000 0.000000 -0.750000
v 0.500000 0.000000 -1.000000
v 1.000000 0.000000 -1.000000
v 0.666667 0.000000 -0.750000
v 0.666667 0.000000 -0.250000
v 0.950000 0.000000 -0.250000
v 0.500000 0.000000 -0.250000
v 0.500000 1.747633 0.750000
v 1.000000 1.747633 0.750000
v 0.500000 1.747633 1.000000
v 1.000000 1.747633 1.000000
v 0.666667 1.747633 0.750000
v 0.950000 1.747633 0.750000
v 0.950000 1.747633 1.000000
v 0.666667 1.747633 1.000000
v 0.666667 1.747633 0.250000
v 0.950000 1.747633 0.250000
v 1.000000 1.747633 0.250000
v 0.500000 1.747633 0.250000
v 0.500000 1.541706 0.750000
v 1.000000 1.541706 0.750000
v 0.500000 1.541706 1.000000
v 1.000000 1.541706 1.000000
v 0.666667 1.541706 0.750000
v 0.950000 1.541706 0.750000
v 0.950000 1.541706 1.000000
v 0.666667 1.541706 1.000000
v 0.666667 1.541706 0.250000
v 0.950000 1.541706 0.250000
v 1.000000 1.541706 0.250000
v 0.500000 1.541706 0.250000
v 0.500000 0.583294 0.750000
v 1.000000 0.583294 0.750000
v 0.500000 0.583294 1.000000
v 1.000000 0.583294 1.000000
v 0.666667 0.583294 0.750000
v 0.950000 0.583294 1.000000
v 0.666667 0.583294 1.000000
v 0.666667 0.583294 0.250000
v 0.950000 0.583294 0.250000
v 1.000000 0.583294 0.250000
v 0.950000 0.583294 0.750000
v 0.500000 0.583294 0.250000
v 0.500000 0.000000 0.750000
v 0.950000 0.000000 0.750000
v 0.950000 0.000000 1.000000
v 0.666667 0.000000 1.000000
v 1.000000 0.000000 0.250000
v 1.000000 0.000000 0.750000
v 0.500000 0.000000 1.000000
v 1.000000 0.000000 1.000000
v 0.666667 0.000000 0.750000
v 0.666667 0.000000 0.250000
v 0.950000 0.000000 0.250000
v 0.500000 0.000000 0.250000
vt 0.877997 0.833055
vt 0.880873 0.833055
vt 0.880873 0.847433
vt 0.877997 0.847433
vt 0.852117 0.833055
vt 0.861702 0.833055
vt 0.861702 0.847433
vt 0.852117 0.847433
vt 0.861702 0.804299
vt 0.877997 0.804299
vt 0.069469 0.766344
vt 0.059884 0.766344
vt 0.059884 0.754500
vt 0.069469 0.754500
vt 0.113196 0.930968
vt 0.141952 0.930968
vt 0.141952 0.942812
vt 0.113196 0.942812
vt 0.093433 0.766344
vt 0.083847 0.766344
vt 0.083847 0.754500
vt 0.093433 0.754500
vt 0.141952 0.970950
vt 0.113196 0.970950
vt 0.113196 0.959107
vt 0.141952 0.959107
vt 0.826645 0.251829
vt 0.823769 0.251829
vt 0.823769 0.239986
vt 0.826645 0.239986
vt 0.043589 0.766344
vt 0.040713 0.766344
vt 0.040713 0.754500
vt 0.043589 0.754500
vt 0.026335 0.766344
vt 0.023459 0.766344
vt 0.023459 0.754500
vt 0.026335 0.754500
vt 0.228249 0.860951
vt 0.218664 0.860951
vt 0.218664 0.849108
vt 0.228249 0.849108
vt 0.007164 0.754500
vt 0.007164 0.699380
vt 0.023459 0.699380
vt 0.069469 0.699380
vt 0.083847 0.699380
vt 0.026335 0.699380
vt 0.218664 0.793988
vt 0.228249 0.793988
vt 0.040713 0.699380
vt 0.059884 0.699380
vt 0.093433 0.699380
vt 0.823769 0.184865
vt 0.826645 0.184865
vt 0.043589 0.699380
vt 0.842940 0.239986
vt 0.842940 0.184865
vt 0.059884 0.665833
vt 0.069469 0.665833
vt 0.880873 0.895307
vt 0.852117 0.895307
vt 0.852117 0.861761
vt 0.880873 0.861761
vt 0.083847 0.665833
vt 0.093433 0.665833
vt 0.852117 0.911602
vt 0.880873 0.911602
vt 0.880873 0.945149
vt 0.852117 0.945149
vt 0.823769 0.151318
vt 0.826645 0.151318
vt 0.040713 0.665833
vt 0.043589 0.665833
vt 0.023459 0.665833
vt 0.026335 0.665833
vt 0.218664 0.760441
vt 0.228249 0.760441
vt 0.852466 0.107811
vt 0.852467 0.122189
vt 0.849591 0.122189
vt 0.849591 0.107811
vt 0.878347 0.107811
vt 0.878347 0.122189
vt 0.868762 0.122189
vt 0.868762 0.107811
vt 0.852466 0.079054
vt 0.868762 0.079054
vt 0.877997 0.746786
vt 0.877997 0.732408
vt 0.880873 0.732408
vt 0.880873 0.746786
vt 0.852117 0.746786
vt 0.852117 0.732408
vt 0.861702 0.732408
vt 0.861702 0.746786
vt 0.877997 0.775542
vt 0.861702 0.775542
vt 0.069469 0.550995
vt 0.069469 0.562838
vt 0.059884 0.562838
vt 0.059884 0.550995
vt 0.971678 0.211847
vt 0.971678 0.223690
vt 0.942922 0.223690
vt 0.942922 0.211847
vt 0.093433 0.550995
vt 0.093432 0.562838
vt 0.083847 0.562838
vt 0.083847 0.550995
vt 0.942922 0.251829
vt 0.942922 0.239986
vt 0.971678 0.239986
vt 0.971678 0.251829
vt 0.792137 0.251829
vt 0.792137 0.239986
vt 0.795013 0.239986
vt 0.795013 0.251829
vt 0.043589 0.550995
vt 0.043589 0.562838
vt 0.040713 0.562838
vt 0.040713 0.550995
vt 0.026335 0.550995
vt 0.026335 0.562838
vt 0.023459 0.562838
vt 0.023459 0.550995
vt 0.257006 0.860951
vt 0.257006 0.849108
vt 0.266591 0.849108
vt 0.266591 0.860951
vt 0.023459 0.617959
vt 0.007164 0.617959
vt 0.007164 0.562838
vt 0.083847 0.617959
vt 0.069469 0.617959
vt 0.026335 0.617959
vt 0.257006 0.793988
vt 0.266591 0.793988
vt 0.040713 0.617959
vt 0.059884 0.617959
vt 0.093433 0.617959
vt 0.792137 0.184865
vt 0.795013 0.184865
vt 0.043589 0.617959
vt 0.775842 0.239986
vt 0.775842 0.184865
vt 0.069469 0.651505
vt 0.059883 0.651505
vt 0.480715 0.886375
vt 0.480715 0.852829
vt 0.509471 0.852829
vt 0.509471 0.886375
vt 0.093432 0.651505
vt 0.083847 0.651505
vt 0.509471 0.902670
vt 0.509471 0.936217
vt 0.480715 0.936217
vt 0.480715 0.902670
vt 0.792137 0.151318
vt 0.795013 0.151318
vt 0.043588 0.651505
vt 0.040713 0.651505
vt 0.026335 0.651505
vt 0.023459 0.651505
vt 0.257006 0.760441
vt 0.266591 0.760441
vt 0.852466 0.021542
vt 0.849591 0.021542
vt 0.849591 0.007164
vt 0.852466 0.007164
vt 0.878347 0.021542
vt 0.868762 0.021542
vt 0.868762 0.007164
vt 0.878347 0.007164
vt 0.868762 0.050298
vt 0.852467 0.050298
vt 0.852117 0.804299
vt 0.852117 0.775542
vt 0.880873 0.775542
vt 0.880873 0.804299
vt 0.849591 0.079054
vt 0.849591 0.050298
vt 0.878347 0.079054
vt 0.878347 0.050298
vn 0.3015 0.9045 0.3015
vn 0.5773 0.5773 0.5773
vn 0.5773 0.5773 -0.5773
vn 0.0000 0.7071 -0.7071
vn -0.5773 0.5773 0.5773
vn -0.3015 0.9045 0.3015
vn -0.5773 0.5773 -0.5773
vn -0.3015 0.9045 -0.3015
vn 0.3015 0.9045 -0.3015
vn 0.0000 0.0000 -1.0000
vn -0.7071 0.0000 -0.7071
vn 0.3015 -0.3015 -0.9045
vn 0.3015 -0.3015 0.9045
vn -0.7071 0.0000 0.7071
vn -0.3015 -0.3015 0.9045
vn -0.3015 -0.3015 -0.9045
vn 0.7071 0.0000 -0.7071
vn 0.7071 0.0000 0.7071
vn -0.3015 0.3015 0.9045
vn 0.3015 0.3015 0.9045
vn -0.3015 0.3015 -0.9045
vn 0.3015 0.3015 -0.9045
vn 0.0000 -0.7071 -0.7071
vn -0.5773 -0.5773 -0.5773
vn 0.3015 -0.9045 -0.3015
vn 0.3015 -0.9045 0.3015
vn -0.5773 -0.5773 0.5773
vn -0.3015 -0.9045 0.3015
vn -0.3015 -0.9045 -0.3015
vn 0.5773 -0.5773 -0.5773
vn 0.5773 -0.5773 0.5773
vn 0.0000 0.7071 0.7071
vn 0.0000 0.0000 1.0000
vn 0.0000 -0.7071 0.7071
usemtl LevelPieces
s 1
f 6/1/1 2/2/2 4/3/3 7/4/4
f 1/5/5 5/6/6 8/7/4 3/8/7
f 5/6/6 6/1/1 7/4/4 8/7/4
f 6/1/1 5/6/6 9/9/8 10/10/9
f 3/11/7 8/12/4 20/13/10 15/14/11
f 6/15/1 10/16/9 22/17/12 18/18/13
f 5/19/6 1/20/5 13/21/14 17/22/15
f 9/23/8 5/24/6 17/25/15 21/26/16
f 10/27/9 11/28/3 23/29/17 22/30/12
f 7/31/4 4/32/3 16/33/17 19/34/10
f 8/12/4 7/31/4 19/34/10 20/13/10
f 1/20/5 3/11/7 15/14/11 13/21/14
f 2/35/2 6/36/1 18/37/13 14/38/18
f 12/39/7 9/40/8 21/41/16 24/42/11
f 4/32/3 2/35/2 14/38/18 16/33/17
f 22/17/12 21/26/16 17/25/15 18/18/13
f 18/37/13 17/43/15 29/44/19 35/45/20
f 13/21/14 15/14/11 27/46/11 25/47/14
f 14/38/18 18/37/13 35/45/20 26/48/18
f 24/42/11 21/41/16 32/49/21 36/50/11
f 16/33/17 14/38/18 26/48/18 28/51/17
f 15/14/11 20/13/10 31/52/10 27/46/11
f 17/22/15 13/21/14 25/47/14 29/53/19
f 22/30/12 23/29/17 34/54/17 33/55/22
f 19/34/10 16/33/17 28/51/17 30/56/10
f 21/57/16 22/30/12 33/55/22 32/58/21
f 20/13/10 19/34/10 30/56/10 31/52/10
f 27/46/11 31/52/10 40/59/23 43/60/24
f 35/61/20 33/62/22 47/63/25 38/64/26
f 29/53/19 25/47/14 37/65/27 45/66/28
f 32/67/21 29/68/19 45/69/28 46/70/29
f 33/55/22 34/54/17 41/71/30 47/72/25
f 30/56/10 28/51/17 44/73/30 39/74/23
f 31/52/10 30/56/10 39/74/23 40/59/23
f 25/47/14 27/46/11 43/60/24 37/65/27
f 26/48/18 35/45/20 38/75/26 42/76/31
f 36/50/11 32/49/21 46/77/29 48/78/24
f 28/51/17 26/48/18 42/76/31 44/73/30
f 32/67/21 33/62/22 35/61/20 29/68/19
f 38/79/26 39/80/23 44/81/30 42/82/31
f 37/83/27 43/84/24 40/85/23 45/86/28
f 45/86/28 40/85/23 39/80/23 38/79/26
f 38/79/26 47/87/25 46/88/29 45/86/28
f 54/89/9 55/90/32 52/91/2 50/92/3
f 49/93/7 51/94/5 56/95/32 53/96/8
f 53/96/8 56/95/32 55/90/32 54/89/9
f 54/89/9 58/97/1 57/98/6 53/96/8
f 51/99/5 63/100/14 68/101/33 56/102/32
f 54/103/9 66/104/12 70/105/13 58/106/1
f 53/107/8 65/108/16 61/109/11 49/110/7
f 57/111/6 69/112/15 65/113/16 53/114/8
f 58/115/1 70/116/13 71/117/18 59/118/2
f 55/119/32 67/120/33 64/121/18 52/122/2
f 56/102/32 68/101/33 67/120/33 55/119/32
f 49/110/7 61/109/11 63/100/14 51/99/5
f 50/123/3 62/124/17 66/125/12 54/126/9
f 60/127/5 72/128/14 69/129/15 57/130/6
f 52/122/2 64/121/18 62/124/17 50/123/3
f 70/105/13 66/104/12 65/113/16 69/112/15
f 66/125/12 83/131/22 77/132/21 65/133/16
f 61/109/11 73/134/11 75/135/14 63/100/14
f 62/124/17 74/136/17 83/131/22 66/125/12
f 72/128/14 84/137/14 80/138/19 69/129/15
f 64/121/18 76/139/18 74/136/17 62/124/17
f 63/100/14 75/135/14 79/140/33 68/101/33
f 65/108/16 77/141/21 73/134/11 61/109/11
f 70/116/13 81/142/20 82/143/18 71/117/18
f 67/120/33 78/144/33 76/139/18 64/121/18
f 69/145/15 80/146/19 81/142/20 70/116/13
f 68/101/33 79/140/33 78/144/33 67/120/33
f 75/135/14 91/147/27 88/148/34 79/140/33
f 83/149/22 86/150/25 95/151/26 81/152/20
f 77/141/21 93/153/29 85/154/24 73/134/11
f 80/155/19 94/156/28 93/157/29 77/158/21
f 81/142/20 95/159/26 89/160/31 82/143/18
f 78/144/33 87/161/34 92/162/31 76/139/18
f 79/140/33 88/148/34 87/161/34 78/144/33
f 73/134/11 85/154/24 91/147/27 75/135/14
f 74/136/17 90/163/30 86/164/25 83/131/22
f 84/137/14 96/165/27 94/166/28 80/138/19
f 76/139/18 92/162/31 90/163/30 74/136/17
f 80/155/19 77/158/21 83/149/22 81/152/20
f 86/167/25 90/168/30 92/169/31 87/170/34
f 85/171/24 93/172/29 88/173/34 91/174/27
f 93/172/29 86/167/25 87/170/34 88/173/34
f 86/167/25 93/172/29 94/175/28 95/176/26
f 36/50/11 84/137/14 72/128/14 24/42/11
f 24/42/11 72/128/14 60/127/5 12/39/7
f 12/177/7 60/178/5 57/98/6 9/9/8
f 10/10/9 9/9/8 57/98/6 58/97/1
f 10/10/9 58/97/1 59/179/2 11/180/3
f 11/28/3 59/118/2 71/117/18 23/29/17
f 23/29/17 71/117/18 82/143/18 34/54/17
f 34/54/17 82/143/18 89/160/31 41/71/30
f 47/87/25 41/181/30 89/182/31 95/176/26
f 47/87/25 95/176/26 94/175/28 46/88/29
f 48/183/24 46/88/29 94/175/28 96/184/27
f 48/78/24 96/165/27 84/137/14 36/50/11
